<?xml version="1.0" encoding="UTF-8"?>
<!DOCTYPE svg PUBLIC "-//W3C//DTD SVG 1.1//EN" "http://www.w3.org/Graphics/SVG/1.1/DTD/svg11.dtd">
<!-- Creator: CorelDRAW 2019 (64 Bit) -->
<svg xmlns="http://www.w3.org/2000/svg" xml:space="preserve" width="84.6666mm" height="84.6666mm" version="1.1" style="shape-rendering:geometricPrecision; text-rendering:geometricPrecision; image-rendering:optimizeQuality; fill-rule:evenodd; clip-rule:evenodd"
viewBox="0 0 8466.66 8466.66"
 xmlns:xlink="http://www.w3.org/1999/xlink">
 <defs>
  <style type="text/css">
   <![CDATA[
    .fil13 {fill:#007D82}
    .fil30 {fill:#009599}
    .fil29 {fill:#00959E}
    .fil19 {fill:#00A3A8}
    .fil22 {fill:#00A8A8}
    .fil18 {fill:#00A992}
    .fil14 {fill:#00ACAA}
    .fil27 {fill:#00ADB1}
    .fil34 {fill:#00AFA4}
    .fil16 {fill:#00B5B6}
    .fil33 {fill:#014A61}
    .fil9 {fill:#014A66}
    .fil32 {fill:#014D6E}
    .fil26 {fill:#017173}
    .fil11 {fill:#017E8A}
    .fil7 {fill:#01867B}
    .fil15 {fill:#018996}
    .fil21 {fill:#018A82}
    .fil6 {fill:#018EA1}
    .fil12 {fill:#019784}
    .fil8 {fill:#01998C}
    .fil1 {fill:#01A1AE}
    .fil25 {fill:#01A29A}
    .fil3 {fill:#01A5A9}
    .fil2 {fill:#01B1A5}
    .fil24 {fill:#01B1A9}
    .fil31 {fill:#01B887}
    .fil4 {fill:#026B85}
    .fil10 {fill:#029592}
    .fil17 {fill:#02B69D}
    .fil5 {fill:#0C3453}
    .fil28 {fill:#0C384B}
    .fil20 {fill:#0D324E}
    .fil23 {fill:#122A42}
    .fil0 {fill:#1B1A17}
    .fil35 {fill:#C8F9F9}
   ]]>
  </style>
 </defs>
 <g id="Camada_x0020_1">
  <metadata id="CorelCorpID_0Corel-Layer"/>
  <g id="_2682871754512">
   <polygon class="fil0" points="4165.6,643.47 4148.66,643.47 4148.66,660.4 4114.8,660.4 4114.8,677.33 4080.93,677.33 4080.93,694.27 4064,694.27 4064,711.2 4030.13,711.2 4030.13,728.13 3996.26,728.13 3996.26,745.07 3962.4,745.07 3962.4,762 3945.46,762 3945.46,778.93 3911.6,778.93 3911.6,795.87 3877.73,795.87 3877.73,812.8 3843.86,812.8 3843.86,829.73 3826.93,829.73 3826.93,846.67 3793.06,846.67 3793.06,863.6 3759.2,863.6 3759.2,880.53 3742.26,880.53 3742.26,897.47 3708.4,897.47 3708.4,914.4 3674.53,914.4 3674.53,931.33 3657.6,931.33 3657.6,948.27 3623.73,948.27 3623.73,965.2 3589.86,965.2 3589.86,982.13 3556,982.13 3556,999.07 3539.06,999.07 3539.06,1016 3505.2,1016 3505.2,1032.93 3471.33,1032.93 3471.33,1049.87 3454.4,1049.87 3454.4,1066.8 3420.53,1066.8 3420.53,1083.73 3386.66,1083.73 3386.66,1100.67 3352.8,1100.67 3352.8,1117.6 3335.86,1117.6 3335.86,1134.53 3302,1134.53 3302,1151.47 3268.13,1151.47 3268.13,1168.4 3251.2,1168.4 3251.2,1185.33 3217.33,1185.33 3217.33,1202.27 3183.46,1202.27 3183.46,1219.2 3149.6,1219.2 3149.6,1236.13 3132.66,1236.13 3132.66,1253.07 3098.8,1253.07 3098.8,1270 3064.93,1270 3064.93,1286.93 3031.06,1286.93 3031.06,1303.87 3014.13,1303.87 3014.13,1320.8 2980.26,1320.8 2980.26,1337.73 2946.4,1337.73 2946.4,1354.67 2929.46,1354.67 2929.46,1371.6 2895.6,1371.6 2895.6,1388.53 2861.73,1388.53 2861.73,1405.47 2827.86,1405.47 2827.86,1422.4 2810.93,1422.4 2810.93,1439.33 2777.06,1439.33 2777.06,1456.27 2743.2,1456.27 2743.2,1473.2 2726.26,1473.2 2726.26,1490.13 2692.4,1490.13 2692.4,1507.07 2658.53,1507.07 2658.53,1524 2624.66,1524 2624.66,1540.93 2607.73,1540.93 2607.73,1557.87 2573.86,1557.87 2573.86,1574.8 2540,1574.8 2540,1591.73 2523.06,1591.73 2523.06,1608.67 2489.2,1608.67 2489.2,1625.6 2455.33,1625.6 2455.33,1642.53 2421.46,1642.53 2421.46,1659.47 2404.53,1659.47 2404.53,1676.4 2370.66,1676.4 2370.66,1693.33 2336.8,1693.33 2336.8,1710.27 2319.86,1710.27 2319.86,1727.2 2286,1727.2 2286,1744.13 2252.13,1744.13 2252.13,1761.07 2218.26,1761.07 2218.26,1778 2201.33,1778 2201.33,1794.93 2167.46,1794.93 2167.46,1811.87 2133.6,1811.87 2133.6,1828.8 2099.73,1828.8 2099.73,1845.73 2082.8,1845.73 2082.8,1862.67 2048.93,1862.67 2048.93,1879.6 2015.07,1879.6 2015.07,1896.53 1998.13,1896.53 1998.13,1913.47 1964.27,1913.47 1964.27,1930.4 1930.4,1930.4 1930.4,1947.33 1896.53,1947.33 1896.53,1964.27 1879.6,1964.27 1879.6,1981.2 1845.73,1981.2 1845.73,1998.13 1811.87,1998.13 1811.87,2015.07 1794.93,2015.07 1794.93,2032 1761.07,2032 1761.07,2048.93 1727.2,2048.93 1727.2,2065.87 1693.33,2065.87 1693.33,2082.8 1676.4,2082.8 1676.4,2099.73 1642.53,2099.73 1642.53,2116.67 1608.67,2116.67 1608.67,2133.6 1591.73,2133.6 1591.73,2150.53 1557.87,2150.53 1557.87,2167.46 1524,2167.46 1524,2184.4 1490.13,2184.4 1490.13,2201.33 1473.2,2201.33 1473.2,2218.26 1439.33,2218.26 1439.33,2235.2 1405.47,2235.2 1405.47,2252.13 1388.53,2252.13 1388.53,2269.06 1354.67,2269.06 1354.67,2286 1320.8,2286 1320.8,2302.93 1286.93,2302.93 1286.93,2319.86 1270,2319.86 1270,2336.8 1236.13,2336.8 1236.13,2353.73 1202.27,2353.73 1202.27,2370.66 1168.4,2370.66 1168.4,2387.6 1151.47,2387.6 1151.47,2404.53 1117.6,2404.53 1117.6,2421.46 1083.73,2421.46 1083.73,2438.4 1066.8,2438.4 1066.8,2455.33 1032.93,2455.33 1032.93,6146.8 1049.87,6146.8 1049.87,6163.73 1066.8,6163.73 1066.8,6180.66 1100.67,6180.66 1100.67,6197.6 1134.53,6197.6 1134.53,6214.53 1168.4,6214.53 1168.4,6231.46 1185.33,6231.46 1185.33,6248.4 1219.2,6248.4 1219.2,6265.33 1253.07,6265.33 1253.07,6282.26 1270,6282.26 1270,6299.2 1303.87,6299.2 1303.87,6316.13 1337.73,6316.13 1337.73,6333.06 1371.6,6333.06 1371.6,6350 1388.53,6350 1388.53,6366.93 1422.4,6366.93 1422.4,6383.86 1456.27,6383.86 1456.27,6400.79 1490.13,6400.79 1490.13,6417.73 1507.07,6417.73 1507.07,6434.66 1540.93,6434.66 1540.93,6451.59 1557.87,6451.59 1557.87,6468.53 1591.73,6468.53 1591.73,6485.46 1625.6,6485.46 1625.6,6502.39 1659.47,6502.39 1659.47,6519.33 1676.4,6519.33 1676.4,6536.26 1710.27,6536.26 1710.27,6553.19 1744.13,6553.19 1744.13,6570.13 1778,6570.13 1778,6587.06 1794.93,6587.06 1794.93,6603.99 1828.8,6603.99 1828.8,6620.93 1862.67,6620.93 1862.67,6637.86 1879.6,6637.86 1879.6,6654.79 1913.47,6654.79 1913.47,6671.73 1947.33,6671.73 1947.33,6688.66 1981.2,6688.66 1981.2,6705.59 1998.13,6705.59 1998.13,6722.53 2032,6722.53 2032,6739.46 2065.87,6739.46 2065.87,6756.39 2082.8,6756.39 2082.8,6773.33 2116.67,6773.33 2116.67,6790.26 2150.53,6790.26 2150.53,6807.19 2184.4,6807.19 2184.4,6824.13 2201.33,6824.13 2201.33,6841.06 2235.2,6841.06 2235.2,6857.99 2269.06,6857.99 2269.06,6874.93 2286,6874.93 2286,6891.86 2319.86,6891.86 2319.86,6908.79 2353.73,6908.79 2353.73,6925.73 2387.6,6925.73 2387.6,6942.66 2404.53,6942.66 2404.53,6959.59 2438.4,6959.59 2438.4,6976.53 2472.26,6976.53 2472.26,6993.46 2489.2,6993.46 2489.2,7010.39 2523.06,7010.39 2523.06,7027.33 2556.93,7027.33 2556.93,7044.26 2590.8,7044.26 2590.8,7061.19 2607.73,7061.19 2607.73,7078.13 2641.6,7078.13 2641.6,7095.06 2675.46,7095.06 2675.46,7111.99 2709.33,7111.99 2709.33,7128.93 2726.26,7128.93 2726.26,7145.86 2760.13,7145.86 2760.13,7162.79 2794,7162.79 2794,7179.73 2810.93,7179.73 2810.93,7196.66 2844.8,7196.66 2844.8,7213.59 2878.66,7213.59 2878.66,7230.53 2895.6,7230.53 2895.6,7247.46 2929.46,7247.46 2929.46,7264.39 2963.33,7264.39 2963.33,7281.33 2997.2,7281.33 2997.2,7298.26 3014.13,7298.26 3014.13,7315.19 3048,7315.19 3048,7332.13 3081.86,7332.13 3081.86,7349.06 3115.73,7349.06 3115.73,7365.99 3132.66,7365.99 3132.66,7382.93 3166.53,7382.93 3166.53,7399.86 3200.4,7399.86 3200.4,7416.79 3217.33,7416.79 3217.33,7433.73 3251.2,7433.73 3251.2,7450.66 3285.06,7450.66 3285.06,7467.59 3318.93,7467.59 3318.93,7484.53 3335.86,7484.53 3335.86,7501.46 3369.73,7501.46 3369.73,7518.39 3403.6,7518.39 3403.6,7535.33 3420.53,7535.33 3420.53,7552.26 3454.4,7552.26 3454.4,7569.19 3488.26,7569.19 3488.26,7586.13 3522.13,7586.13 3522.13,7603.06 3539.06,7603.06 3539.06,7619.99 3572.93,7619.99 3572.93,7636.93 3606.8,7636.93 3606.8,7653.86 3623.73,7653.86 3623.73,7670.79 3657.6,7670.79 3657.6,7687.73 3691.46,7687.73 3691.46,7704.66 3708.4,7704.66 3708.4,7721.59 3742.26,7721.59 3742.26,7738.53 3776.13,7738.53 3776.13,7755.46 3810,7755.46 3810,7772.39 3826.93,7772.39 3826.93,7789.33 3860.8,7789.33 3860.8,7806.26 3894.66,7806.26 3894.66,7823.19 3928.53,7823.19 3928.53,7840.13 3945.46,7840.13 3945.46,7857.06 3979.33,7857.06 3979.33,7873.99 4013.2,7873.99 4013.2,7890.93 4030.13,7890.93 4030.13,7907.86 4064,7907.86 4064,7924.79 4097.86,7924.79 4097.86,7941.73 4131.73,7941.73 4131.73,7958.66 4148.66,7958.66 4148.66,7975.59 4182.53,7975.59 4182.53,7992.53 4216.4,7992.53 4216.4,7975.59 4233.33,7975.59 4233.33,7958.66 4267.2,7958.66 4267.2,7941.73 4301.06,7941.73 4301.06,7924.79 4334.93,7924.79 4334.93,7907.86 4351.86,7907.86 4351.86,7890.93 4385.73,7890.93 4385.73,7873.99 4419.6,7873.99 4419.6,7857.06 4436.53,7857.06 4436.53,7840.13 4470.4,7840.13 4470.4,7823.19 4504.26,7823.19 4504.26,7806.26 4538.13,7806.26 4538.13,7789.33 4555.06,7789.33 4555.06,7772.39 4588.93,7772.39 4588.93,7755.46 4622.8,7755.46 4622.8,7738.53 4639.73,7738.53 4639.73,7721.59 4673.6,7721.59 4673.6,7704.66 4707.46,7704.66 4707.46,7687.73 4741.33,7687.73 4741.33,7670.79 4758.26,7670.79 4758.26,7653.86 4792.13,7653.86 4792.13,7636.93 4826,7636.93 4826,7619.99 4842.93,7619.99 4842.93,7603.06 4876.8,7603.06 4876.8,7586.13 4910.66,7586.13 4910.66,7569.19 4944.53,7569.19 4944.53,7552.26 4961.46,7552.26 4961.46,7535.33 4995.33,7535.33 4995.33,7518.39 5029.2,7518.39 5029.2,7501.46 5046.13,7501.46 5046.13,7484.53 5080,7484.53 5080,7467.59 5113.86,7467.59 5113.86,7450.66 5130.8,7450.66 5130.8,7433.73 5164.66,7433.73 5164.66,7416.79 5198.53,7416.79 5198.53,7399.86 5232.4,7399.86 5232.4,7382.93 5249.33,7382.93 5249.33,7365.99 5283.2,7365.99 5283.2,7349.06 5317.06,7349.06 5317.06,7332.13 5350.93,7332.13 5350.93,7315.19 5367.86,7315.19 5367.86,7298.26 5401.73,7298.26 5401.73,7281.33 5435.6,7281.33 5435.6,7264.39 5452.53,7264.39 5452.53,7247.46 5486.4,7247.46 5486.4,7230.53 5520.26,7230.53 5520.26,7213.59 5537.2,7213.59 5537.2,7196.66 5571.06,7196.66 5571.06,7179.73 5604.93,7179.73 5604.93,7162.79 5638.8,7162.79 5638.8,7145.86 5655.73,7145.86 5655.73,7128.93 5689.6,7128.93 5689.6,7111.99 5723.46,7111.99 5723.46,7095.06 5740.4,7095.06 5740.4,7078.13 5774.26,7078.13 5774.26,7061.19 5808.13,7061.19 5808.13,7044.26 5842,7044.26 5842,7027.33 5875.86,7027.33 5875.86,7010.39 5892.8,7010.39 5892.8,6993.46 5926.66,6993.46 5926.66,6976.53 5960.53,6976.53 5960.53,6959.59 5977.46,6959.59 5977.46,6942.66 6011.33,6942.66 6011.33,6925.73 6045.2,6925.73 6045.2,6908.79 6062.13,6908.79 6062.13,6891.86 6096,6891.86 6096,6874.93 6129.86,6874.93 6129.86,6857.99 6163.73,6857.99 6163.73,6841.06 6180.66,6841.06 6180.66,6824.13 6214.53,6824.13 6214.53,6807.19 6248.4,6807.19 6248.4,6790.26 6265.33,6790.26 6265.33,6773.33 6299.2,6773.33 6299.2,6756.39 6333.06,6756.39 6333.06,6739.46 6366.93,6739.46 6366.93,6722.53 6383.86,6722.53 6383.86,6705.59 6417.73,6705.59 6417.73,6688.66 6451.59,6688.66 6451.59,6671.73 6468.53,6671.73 6468.53,6654.79 6502.39,6654.79 6502.39,6637.86 6536.26,6637.86 6536.26,6620.93 6570.13,6620.93 6570.13,6603.99 6587.06,6603.99 6587.06,6587.06 6620.93,6587.06 6620.93,6570.13 6654.79,6570.13 6654.79,6553.19 6671.73,6553.19 6671.73,6536.26 6705.59,6536.26 6705.59,6519.33 6739.46,6519.33 6739.46,6502.39 6773.33,6502.39 6773.33,6485.46 6790.26,6485.46 6790.26,6468.53 6824.13,6468.53 6824.13,6451.59 6857.99,6451.59 6857.99,6434.66 6874.93,6434.66 6874.93,6417.73 6908.79,6417.73 6908.79,6400.79 6942.66,6400.79 6942.66,6383.86 6976.53,6383.86 6976.53,6366.93 6993.46,6366.93 6993.46,6350 7027.33,6350 7027.33,6333.06 7061.19,6333.06 7061.19,6316.13 7078.13,6316.13 7078.13,6299.2 7111.99,6299.2 7111.99,6282.26 7145.86,6282.26 7145.86,6265.33 7179.73,6265.33 7179.73,6248.4 7196.66,6248.4 7196.66,6231.46 7230.53,6231.46 7230.53,6214.53 7264.39,6214.53 7264.39,6197.6 7298.26,6197.6 7298.26,6180.66 7315.19,6180.66 7315.19,6163.73 7349.06,6163.73 7349.06,3979.33 7078.13,3979.33 7078.13,3996.26 7061.19,3996.26 7061.19,6011.33 7044.26,6011.33 7044.26,6028.26 7010.39,6028.26 7010.39,6045.2 6993.46,6045.2 6993.46,6062.13 6959.59,6062.13 6959.59,6079.06 6925.73,6079.06 6925.73,6096 6891.86,6096 6891.86,6112.93 6874.93,6112.93 6874.93,6129.86 6841.06,6129.86 6841.06,6146.8 6807.19,6146.8 6807.19,6163.73 6773.33,6163.73 6773.33,6180.66 6756.39,6180.66 6756.39,6197.6 6722.53,6197.6 6722.53,6214.53 6688.66,6214.53 6688.66,6231.46 6654.79,6231.46 6654.79,6248.4 6637.86,6248.4 6637.86,6265.33 6603.99,6265.33 6603.99,6282.26 6570.13,6282.26 6570.13,6299.2 6553.19,6299.2 6553.19,6316.13 6519.33,6316.13 6519.33,6333.06 6485.46,6333.06 6485.46,6350 6451.59,6350 6451.59,6366.93 6434.66,6366.93 6434.66,6383.86 6400.79,6383.86 6400.79,6400.79 6366.93,6400.79 6366.93,6417.73 6350,6417.73 6350,6434.66 6316.13,6434.66 6316.13,6451.59 6282.26,6451.59 6282.26,6468.53 6248.4,6468.53 6248.4,6485.46 6231.46,6485.46 6231.46,6502.39 6197.6,6502.39 6197.6,6519.33 6163.73,6519.33 6163.73,6536.26 6146.8,6536.26 6146.8,6553.19 6112.93,6553.19 6112.93,6570.13 6079.06,6570.13 6079.06,6587.06 6045.2,6587.06 6045.2,6603.99 6028.26,6603.99 6028.26,6620.93 5994.4,6620.93 5994.4,6637.86 5960.53,6637.86 5960.53,6654.79 5926.66,6654.79 5926.66,6671.73 5909.73,6671.73 5909.73,6688.66 5875.86,6688.66 5875.86,6705.59 5842,6705.59 5842,6722.53 5825.06,6722.53 5825.06,6739.46 5791.2,6739.46 5791.2,6756.39 5757.33,6756.39 5757.33,6773.33 5723.46,6773.33 5723.46,6790.26 5706.53,6790.26 5706.53,6807.19 5672.66,6807.19 5672.66,6824.13 5638.8,6824.13 5638.8,6841.06 5604.93,6841.06 5604.93,6857.99 5588,6857.99 5588,6874.93 5554.13,6874.93 5554.13,6891.86 5520.26,6891.86 5520.26,6908.79 5503.33,6908.79 5503.33,6925.73 5469.46,6925.73 5469.46,6942.66 5435.6,6942.66 5435.6,6959.59 5401.73,6959.59 5401.73,6976.53 5384.8,6976.53 5384.8,6993.46 5350.93,6993.46 5350.93,7010.39 5317.06,7010.39 5317.06,7027.33 5300.13,7027.33 5300.13,7044.26 5266.26,7044.26 5266.26,7061.19 5232.4,7061.19 5232.4,7078.13 5198.53,7078.13 5198.53,7095.06 5181.6,7095.06 5181.6,7111.99 5147.73,7111.99 5147.73,7128.93 5113.86,7128.93 5113.86,7145.86 5080,7145.86 5080,7162.79 5063.06,7162.79 5063.06,7179.73 5029.2,7179.73 5029.2,7196.66 4995.33,7196.66 4995.33,7213.59 4961.46,7213.59 4961.46,7230.53 4944.53,7230.53 4944.53,7247.46 4910.66,7247.46 4910.66,7264.39 4876.8,7264.39 4876.8,7281.33 4859.86,7281.33 4859.86,7298.26 4826,7298.26 4826,7315.19 4792.13,7315.19 4792.13,7332.13 4758.26,7332.13 4758.26,7349.06 4741.33,7349.06 4741.33,7365.99 4707.46,7365.99 4707.46,7382.93 4673.6,7382.93 4673.6,7399.86 4656.66,7399.86 4656.66,7416.79 4622.8,7416.79 4622.8,7433.73 4588.93,7433.73 4588.93,7450.66 4555.06,7450.66 4555.06,7467.59 4538.13,7467.59 4538.13,7484.53 4504.26,7484.53 4504.26,7501.46 4470.4,7501.46 4470.4,7518.39 4436.53,7518.39 4436.53,7535.33 4419.6,7535.33 4419.6,7552.26 4385.73,7552.26 4385.73,7569.19 4351.86,7569.19 4351.86,7586.13 4334.93,7586.13 4334.93,7603.06 4301.06,7603.06 4301.06,7619.99 4267.2,7619.99 4267.2,7636.93 4233.33,7636.93 4233.33,7653.86 4216.4,7653.86 4216.4,7670.79 4165.6,7670.79 4165.6,7653.86 4131.73,7653.86 4131.73,7636.93 4114.8,7636.93 4114.8,7619.99 4080.93,7619.99 4080.93,7603.06 4047.06,7603.06 4047.06,7586.13 4013.2,7586.13 4013.2,7569.19 3996.26,7569.19 3996.26,7552.26 3962.4,7552.26 3962.4,7535.33 3928.53,7535.33 3928.53,7518.39 3911.6,7518.39 3911.6,7501.46 3877.73,7501.46 3877.73,7484.53 3843.86,7484.53 3843.86,7467.59 3810,7467.59 3810,7450.66 3776.13,7450.66 3776.13,7433.73 3759.2,7433.73 3759.2,7416.79 3725.33,7416.79 3725.33,7399.86 3691.46,7399.86 3691.46,7382.93 3657.6,7382.93 3657.6,7365.99 3640.66,7365.99 3640.66,7349.06 3606.8,7349.06 3606.8,7332.13 3572.93,7332.13 3572.93,7315.19 3556,7315.19 3556,7298.26 3522.13,7298.26 3522.13,7281.33 3488.26,7281.33 3488.26,7264.39 3454.4,7264.39 3454.4,7247.46 3437.46,7247.46 3437.46,7230.53 3403.6,7230.53 3403.6,7213.59 3369.73,7213.59 3369.73,7196.66 3335.86,7196.66 3335.86,7179.73 3318.93,7179.73 3318.93,7162.79 3285.06,7162.79 3285.06,7145.86 3251.2,7145.86 3251.2,7128.93 3234.26,7128.93 3234.26,7111.99 3200.4,7111.99 3200.4,7095.06 3166.53,7095.06 3166.53,7078.13 3132.66,7078.13 3132.66,7061.19 3115.73,7061.19 3115.73,7044.26 3081.86,7044.26 3081.86,7027.33 3048,7027.33 3048,7010.39 3014.13,7010.39 3014.13,6993.46 2997.2,6993.46 2997.2,6976.53 2963.33,6976.53 2963.33,6959.59 2929.46,6959.59 2929.46,6942.66 2895.6,6942.66 2895.6,6925.73 2878.66,6925.73 2878.66,6908.79 2844.8,6908.79 2844.8,6891.86 2810.93,6891.86 2810.93,6874.93 2777.06,6874.93 2777.06,6857.99 2760.13,6857.99 2760.13,6841.06 2726.26,6841.06 2726.26,6824.13 2692.4,6824.13 2692.4,6807.19 2658.53,6807.19 2658.53,6790.26 2641.6,6790.26 2641.6,6773.33 2607.73,6773.33 2607.73,6756.39 2573.86,6756.39 2573.86,6739.46 2540,6739.46 2540,6722.53 2523.06,6722.53 2523.06,6705.59 2489.2,6705.59 2489.2,6688.66 2455.33,6688.66 2455.33,6671.73 2438.4,6671.73 2438.4,6654.79 2404.53,6654.79 2404.53,6637.86 2370.66,6637.86 2370.66,6620.93 2336.8,6620.93 2336.8,6603.99 2302.93,6603.99 2302.93,6587.06 2286,6587.06 2286,6570.13 2252.13,6570.13 2252.13,6553.19 2218.26,6553.19 2218.26,6536.26 2201.33,6536.26 2201.33,6519.33 2167.46,6519.33 2167.46,6502.39 2133.6,6502.39 2133.6,6485.46 2099.73,6485.46 2099.73,6468.53 2082.8,6468.53 2082.8,6451.59 2048.93,6451.59 2048.93,6434.66 2015.07,6434.66 2015.07,6417.73 1981.2,6417.73 1981.2,6400.79 1964.27,6400.79 1964.27,6383.86 1930.4,6383.86 1930.4,6366.93 1896.53,6366.93 1896.53,6350 1879.6,6350 1879.6,6333.06 1845.73,6333.06 1845.73,6316.13 1811.87,6316.13 1811.87,6299.2 1778,6299.2 1778,6282.26 1761.07,6282.26 1761.07,6265.33 1727.2,6265.33 1727.2,6248.4 1693.33,6248.4 1693.33,6231.46 1659.47,6231.46 1659.47,6214.53 1625.6,6214.53 1625.6,6197.6 1608.67,6197.6 1608.67,6180.66 1574.8,6180.66 1574.8,6163.73 1540.93,6163.73 1540.93,6146.8 1524,6146.8 1524,6129.86 1490.13,6129.86 1490.13,6112.93 1456.27,6112.93 1456.27,6096 1422.4,6096 1422.4,6079.06 1405.47,6079.06 1405.47,6062.13 1371.6,6062.13 1371.6,6045.2 1337.73,6045.2 1337.73,6028.26 1303.87,6028.26 1303.87,6011.33 1286.93,6011.33 1286.93,2607.73 1303.87,2607.73 1303.87,2590.8 1320.8,2590.8 1320.8,2573.86 1354.67,2573.86 1354.67,2556.93 1388.53,2556.93 1388.53,2540 1422.4,2540 1422.4,2523.06 1439.33,2523.06 1439.33,2506.13 1473.2,2506.13 1473.2,2489.2 1507.07,2489.2 1507.07,2472.26 1524,2472.26 1524,2455.33 1557.87,2455.33 1557.87,2438.4 1591.73,2438.4 1591.73,2421.46 1625.6,2421.46 1625.6,2404.53 1642.53,2404.53 1642.53,2387.6 1676.4,2387.6 1676.4,2370.66 1710.27,2370.66 1710.27,2353.73 1727.2,2353.73 1727.2,2336.8 1761.07,2336.8 1761.07,2319.86 1794.93,2319.86 1794.93,2302.93 1828.8,2302.93 1828.8,2286 1845.73,2286 1845.73,2269.06 1879.6,2269.06 1879.6,2252.13 1913.47,2252.13 1913.47,2235.2 1930.4,2235.2 1930.4,2218.26 1964.27,2218.26 1964.27,2201.33 1998.13,2201.33 1998.13,2184.4 2032,2184.4 2032,2167.46 2048.93,2167.46 2048.93,2150.53 2082.8,2150.53 2082.8,2133.6 2116.67,2133.6 2116.67,2116.67 2133.6,2116.67 2133.6,2099.73 2167.46,2099.73 2167.46,2082.8 2201.33,2082.8 2201.33,2065.87 2218.26,2065.87 2218.26,2048.93 2252.13,2048.93 2252.13,2032 2286,2032 2286,2015.07 2319.86,2015.07 2319.86,1998.13 2336.8,1998.13 2336.8,1981.2 2370.66,1981.2 2370.66,1964.27 2404.53,1964.27 2404.53,1947.33 2421.46,1947.33 2421.46,1930.4 2455.33,1930.4 2455.33,1913.47 2489.2,1913.47 2489.2,1896.53 2523.06,1896.53 2523.06,1879.6 2540,1879.6 2540,1862.67 2573.86,1862.67 2573.86,1845.73 2607.73,1845.73 2607.73,1828.8 2641.6,1828.8 2641.6,1811.87 2658.53,1811.87 2658.53,1794.93 2692.4,1794.93 2692.4,1778 2726.26,1778 2726.26,1761.07 2743.2,1761.07 2743.2,1744.13 2777.06,1744.13 2777.06,1727.2 2810.93,1727.2 2810.93,1710.27 2844.8,1710.27 2844.8,1693.33 2861.73,1693.33 2861.73,1676.4 2895.6,1676.4 2895.6,1659.47 2929.46,1659.47 2929.46,1642.53 2946.4,1642.53 2946.4,1625.6 2980.26,1625.6 2980.26,1608.67 3014.13,1608.67 3014.13,1591.73 3048,1591.73 3048,1574.8 3064.93,1574.8 3064.93,1557.87 3098.8,1557.87 3098.8,1540.93 3132.66,1540.93 3132.66,1524 3149.6,1524 3149.6,1507.07 3183.46,1507.07 3183.46,1490.13 3217.33,1490.13 3217.33,1473.2 3251.2,1473.2 3251.2,1456.27 3268.13,1456.27 3268.13,1439.33 3302,1439.33 3302,1422.4 3335.86,1422.4 3335.86,1405.47 3352.8,1405.47 3352.8,1388.53 3386.66,1388.53 3386.66,1371.6 3420.53,1371.6 3420.53,1354.67 3454.4,1354.67 3454.4,1337.73 3471.33,1337.73 3471.33,1320.8 3505.2,1320.8 3505.2,1303.87 3539.06,1303.87 3539.06,1286.93 3556,1286.93 3556,1270 3589.86,1270 3589.86,1253.07 3623.73,1253.07 3623.73,1236.13 3640.66,1236.13 3640.66,1219.2 3674.53,1219.2 3674.53,1202.27 3708.4,1202.27 3708.4,1185.33 3742.26,1185.33 3742.26,1168.4 3759.2,1168.4 3759.2,1151.47 3793.06,1151.47 3793.06,1134.53 3826.93,1134.53 3826.93,1117.6 3843.86,1117.6 3843.86,1100.67 3877.73,1100.67 3877.73,1083.73 3911.6,1083.73 3911.6,1066.8 3928.53,1066.8 3928.53,1049.87 3962.4,1049.87 3962.4,1032.93 3996.26,1032.93 3996.26,1016 4030.13,1016 4030.13,999.07 4047.06,999.07 4047.06,982.13 4080.93,982.13 4080.93,965.2 4114.8,965.2 4114.8,948.27 4148.66,948.27 4148.66,931.33 4165.6,931.33 4165.6,914.4 4199.46,914.4 4199.46,897.47 4216.4,897.47 4216.4,914.4 4233.33,914.4 4233.33,931.33 4267.2,931.33 4267.2,948.27 4301.06,948.27 4301.06,965.2 4334.93,965.2 4334.93,982.13 4351.86,982.13 4351.86,999.07 4385.73,999.07 4385.73,1016 4419.6,1016 4419.6,1032.93 4436.53,1032.93 4436.53,1049.87 4470.4,1049.87 4470.4,1066.8 4504.26,1066.8 4504.26,1083.73 4538.13,1083.73 4538.13,1100.67 4555.06,1100.67 4555.06,1117.6 4588.93,1117.6 4588.93,1134.53 4622.8,1134.53 4622.8,1151.47 4639.73,1151.47 4639.73,1168.4 4673.6,1168.4 4673.6,1185.33 4707.46,1185.33 4707.46,1202.27 4741.33,1202.27 4741.33,1219.2 4758.26,1219.2 4758.26,1236.13 4792.13,1236.13 4792.13,1253.07 4826,1253.07 4826,1270 4842.93,1270 4842.93,1286.93 4876.8,1286.93 4876.8,1303.87 4910.66,1303.87 4910.66,1320.8 4927.6,1320.8 4927.6,1337.73 4961.46,1337.73 4961.46,1354.67 4995.33,1354.67 4995.33,1371.6 5029.2,1371.6 5029.2,1388.53 5046.13,1388.53 5046.13,1405.47 5080,1405.47 5080,1422.4 5113.86,1422.4 5113.86,1439.33 5147.73,1439.33 5147.73,1456.27 5164.66,1456.27 5164.66,1473.2 5198.53,1473.2 5198.53,1490.13 5232.4,1490.13 5232.4,1507.07 5249.33,1507.07 5249.33,1524 5283.2,1524 5283.2,1540.93 5317.06,1540.93 5317.06,1557.87 5350.93,1557.87 5350.93,1574.8 5367.86,1574.8 5367.86,1591.73 5401.73,1591.73 5401.73,1608.67 5435.6,1608.67 5435.6,1625.6 5452.53,1625.6 5452.53,1642.53 5486.4,1642.53 5486.4,1659.47 5520.26,1659.47 5520.26,1676.4 5554.13,1676.4 5554.13,1693.33 5571.06,1693.33 5571.06,1710.27 5604.93,1710.27 5604.93,1727.2 5638.8,1727.2 5638.8,1744.13 5655.73,1744.13 5655.73,1761.07 5689.6,1761.07 5689.6,1778 5723.46,1778 5723.46,1794.93 5740.4,1794.93 5740.4,1811.87 5774.26,1811.87 5774.26,1828.8 5808.13,1828.8 5808.13,1845.73 5842,1845.73 5842,1862.67 5858.93,1862.67 5858.93,1879.6 5892.8,1879.6 5892.8,1896.53 5926.66,1896.53 5926.66,1913.47 5960.53,1913.47 5960.53,1930.4 5977.46,1930.4 5977.46,1947.33 6011.33,1947.33 6011.33,1964.27 6045.2,1964.27 6045.2,1981.2 6519.33,1981.2 6519.33,1964.27 6502.39,1964.27 6502.39,1947.33 6468.53,1947.33 6468.53,1930.4 6434.66,1930.4 6434.66,1913.47 6400.79,1913.47 6400.79,1896.53 6383.86,1896.53 6383.86,1879.6 6350,1879.6 6350,1862.67 6316.13,1862.67 6316.13,1845.73 6282.26,1845.73 6282.26,1828.8 6265.33,1828.8 6265.33,1811.87 6231.46,1811.87 6231.46,1794.93 6197.6,1794.93 6197.6,1778 6180.66,1778 6180.66,1761.07 6146.8,1761.07 6146.8,1744.13 6112.93,1744.13 6112.93,1727.2 6079.06,1727.2 6079.06,1710.27 6062.13,1710.27 6062.13,1693.33 6028.26,1693.33 6028.26,1676.4 5994.4,1676.4 5994.4,1659.47 5960.53,1659.47 5960.53,1642.53 5943.6,1642.53 5943.6,1625.6 5909.73,1625.6 5909.73,1608.67 5875.86,1608.67 5875.86,1591.73 5858.93,1591.73 5858.93,1574.8 5825.06,1574.8 5825.06,1557.87 5791.2,1557.87 5791.2,1540.93 5774.26,1540.93 5774.26,1524 5740.4,1524 5740.4,1507.07 5706.53,1507.07 5706.53,1490.13 5672.66,1490.13 5672.66,1473.2 5655.73,1473.2 5655.73,1456.27 5621.86,1456.27 5621.86,1439.33 5588,1439.33 5588,1422.4 5554.13,1422.4 5554.13,1405.47 5537.2,1405.47 5537.2,1388.53 5503.33,1388.53 5503.33,1371.6 5469.46,1371.6 5469.46,1354.67 5452.53,1354.67 5452.53,1337.73 5418.66,1337.73 5418.66,1320.8 5384.8,1320.8 5384.8,1303.87 5367.86,1303.87 5367.86,1286.93 5334,1286.93 5334,1270 5300.13,1270 5300.13,1253.07 5266.26,1253.07 5266.26,1236.13 5249.33,1236.13 5249.33,1219.2 5215.46,1219.2 5215.46,1202.27 5181.6,1202.27 5181.6,1185.33 5147.73,1185.33 5147.73,1168.4 5130.8,1168.4 5130.8,1151.47 5096.93,1151.47 5096.93,1134.53 5063.06,1134.53 5063.06,1117.6 5046.13,1117.6 5046.13,1100.67 5012.26,1100.67 5012.26,1083.73 4978.4,1083.73 4978.4,1066.8 4944.53,1066.8 4944.53,1049.87 4927.6,1049.87 4927.6,1032.93 4893.73,1032.93 4893.73,1016 4859.86,1016 4859.86,999.07 4842.93,999.07 4842.93,982.13 4809.06,982.13 4809.06,965.2 4775.2,965.2 4775.2,948.27 4741.33,948.27 4741.33,931.33 4724.4,931.33 4724.4,914.4 4690.53,914.4 4690.53,897.47 4656.66,897.47 4656.66,880.53 4639.73,880.53 4639.73,863.6 4605.86,863.6 4605.86,846.67 4572,846.67 4572,829.73 4555.06,829.73 4555.06,812.8 4521.2,812.8 4521.2,795.87 4487.33,795.87 4487.33,778.93 4453.46,778.93 4453.46,762 4419.6,762 4419.6,745.07 4402.66,745.07 4402.66,728.13 4368.8,728.13 4368.8,711.2 4334.93,711.2 4334.93,694.27 4318,694.27 4318,677.33 4284.13,677.33 4284.13,660.4 4250.26,660.4 4250.26,643.47 4233.33,643.47 4233.33,626.53 4165.6,626.53 "/>
   <polygon class="fil1" points="4605.86,3674.53 4605.86,3725.33 4639.73,3725.33 4639.73,3793.06 4656.66,3793.06 4656.66,3826.93 4673.6,3826.93 4673.6,3843.86 4690.53,3843.86 4690.53,3877.73 4724.4,3877.73 4724.4,3894.66 4741.33,3894.66 4741.33,3928.53 4758.26,3928.53 4758.26,3945.46 4775.2,3945.46 4775.2,3962.4 4792.13,3962.4 4792.13,3979.33 4809.06,3979.33 4809.06,4064 4826,4064 4826,4097.86 4859.86,4097.86 4859.86,4148.66 4876.8,4148.66 4876.8,4199.46 4893.73,4199.46 4893.73,4250.26 4944.53,4250.26 4944.53,4267.2 4961.46,4267.2 4961.46,4301.06 4978.4,4301.06 4978.4,4334.93 4995.33,4334.93 4995.33,4368.8 5012.26,4368.8 5012.26,4436.53 4995.33,4436.53 4995.33,4453.46 5029.2,4453.46 5029.2,4436.53 5046.13,4436.53 5046.13,4419.6 5063.06,4419.6 5063.06,4402.66 5080,4402.66 5080,4368.8 5096.93,4368.8 5096.93,4334.93 5130.8,4334.93 5130.8,4301.06 5147.73,4301.06 5147.73,4233.33 5164.66,4233.33 5164.66,4199.46 5215.46,4199.46 5215.46,4165.6 5232.4,4165.6 5232.4,4097.86 5266.26,4097.86 5266.26,4064 5283.2,4064 5283.2,4030.13 5300.13,4030.13 5300.13,3996.26 5317.06,3996.26 5317.06,3962.4 5334,3962.4 5334,3928.53 5350.93,3928.53 5350.93,3894.66 5367.86,3894.66 5367.86,3860.8 5384.8,3860.8 5384.8,3826.93 5418.66,3826.93 5418.66,3776.13 5452.53,3776.13 5452.53,3759.2 5418.66,3759.2 5418.66,3742.26 5435.6,3742.26 5435.6,3691.46 5452.53,3691.46 5452.53,3725.33 5469.46,3725.33 5469.46,3759.2 5486.4,3759.2 5486.4,3725.33 7145.86,3725.33 7145.86,3708.4 5486.4,3708.4 5486.4,3674.53 5452.53,3674.53 5452.53,3657.6 5435.6,3657.6 5435.6,3640.66 5418.66,3640.66 5418.66,3589.86 5401.73,3589.86 5401.73,3572.93 5384.8,3572.93 5384.8,3539.06 5367.86,3539.06 5367.86,3522.13 5350.93,3522.13 5350.93,3488.26 5334,3488.26 5334,3454.4 5317.06,3454.4 5317.06,3420.53 5300.13,3420.53 5300.13,3403.6 5283.2,3403.6 5283.2,3352.8 5249.33,3352.8 5249.33,3318.93 5232.4,3318.93 5232.4,3285.06 5215.46,3285.06 5215.46,3251.2 5198.53,3251.2 5198.53,3217.33 5181.6,3217.33 5181.6,3183.46 5164.66,3183.46 5164.66,3149.6 5147.73,3149.6 5147.73,3132.66 5130.8,3132.66 5130.8,3115.73 5113.86,3115.73 5113.86,3081.86 5096.93,3081.86 5096.93,3048 5080,3048 5080,3014.13 5063.06,3014.13 5063.06,2980.26 5046.13,2980.26 5046.13,2946.4 5029.2,2946.4 5029.2,3014.13 5012.26,3014.13 5012.26,3048 4978.4,3048 4978.4,3115.73 4961.46,3115.73 4961.46,3149.6 4927.6,3149.6 4927.6,3183.46 4910.66,3183.46 4910.66,3217.33 4893.73,3217.33 4893.73,3251.2 4876.8,3251.2 4876.8,3285.06 4859.86,3285.06 4859.86,3318.93 4842.93,3318.93 4842.93,3352.8 4809.06,3352.8 4809.06,3386.66 4792.13,3386.66 4792.13,3420.53 4775.2,3420.53 4775.2,3454.4 4758.26,3454.4 4758.26,3488.26 4741.33,3488.26 4741.33,3522.13 4707.46,3522.13 4707.46,3556 4690.53,3556 4690.53,3606.8 4673.6,3606.8 4673.6,3623.73 4656.66,3623.73 4656.66,3640.66 4639.73,3640.66 4639.73,3657.6 4622.8,3657.6 4622.8,3674.53 "/>
   <polygon class="fil2" points="2929.46,3725.33 2946.4,3725.33 2946.4,3793.06 2997.2,3793.06 2997.2,3894.66 3081.86,3894.66 3081.86,3928.53 3064.93,3928.53 3064.93,3962.4 3115.73,3962.4 3115.73,3996.26 3098.8,3996.26 3098.8,4064 3132.66,4064 3132.66,4131.73 3166.53,4131.73 3166.53,4165.6 3149.6,4165.6 3149.6,4199.46 3183.46,4199.46 3183.46,4233.33 3234.26,4233.33 3234.26,4301.06 3251.2,4301.06 3251.2,4334.93 3014.13,4334.93 3014.13,4301.06 2980.26,4301.06 2980.26,4368.8 3251.2,4368.8 3251.2,4402.66 3268.13,4402.66 3268.13,4436.53 3318.93,4436.53 3318.93,4470.4 3352.8,4470.4 3352.8,4402.66 3386.66,4402.66 3386.66,4368.8 3403.6,4368.8 3403.6,4334.93 3420.53,4334.93 3420.53,4301.06 3437.46,4301.06 3437.46,4267.2 3471.33,4267.2 3471.33,4199.46 3505.2,4199.46 3505.2,4148.66 3522.13,4148.66 3522.13,4064 3572.93,4064 3572.93,4047.06 3589.86,4047.06 3589.86,4030.13 3606.8,4030.13 3606.8,3996.26 3623.73,3996.26 3623.73,3962.4 3640.66,3962.4 3640.66,3928.53 3674.53,3928.53 3674.53,3860.8 3708.4,3860.8 3708.4,3793.06 3759.2,3793.06 3759.2,3742.26 3776.13,3742.26 3776.13,3725.33 3759.2,3725.33 3759.2,3708.4 3522.13,3708.4 3522.13,3691.46 3217.33,3691.46 3217.33,3708.4 3048,3708.4 3048,3674.53 3081.86,3674.53 3081.86,3657.6 3098.8,3657.6 3098.8,3640.66 3115.73,3640.66 3115.73,3606.8 3098.8,3606.8 3098.8,3572.93 3115.73,3572.93 3115.73,3522.13 3048,3522.13 3048,3505.2 3031.06,3505.2 3031.06,3522.13 3014.13,3522.13 3014.13,3556 2997.2,3556 2997.2,3589.86 2980.26,3589.86 2980.26,3623.73 2963.33,3623.73 2963.33,3657.6 2946.4,3657.6 2946.4,3691.46 2929.46,3691.46 "/>
   <polygon class="fil3" points="4656.66,5147.73 4656.66,5130.8 4673.6,5130.8 4673.6,5113.86 4707.46,5113.86 4707.46,5012.26 4741.33,5012.26 4741.33,4995.33 4758.26,4995.33 4758.26,4978.4 4775.2,4978.4 4775.2,4944.53 4792.13,4944.53 4792.13,4893.73 4809.06,4893.73 4809.06,4809.06 4859.86,4809.06 4859.86,4741.33 4876.8,4741.33 4876.8,4707.46 4927.6,4707.46 4927.6,4639.73 4961.46,4639.73 4961.46,4605.86 5012.26,4605.86 5012.26,4538.13 4995.33,4538.13 4995.33,4470.4 5029.2,4470.4 5029.2,4453.46 4995.33,4453.46 4995.33,4436.53 4334.93,4436.53 4334.93,4453.46 4301.06,4453.46 4301.06,4470.4 4267.2,4470.4 4267.2,4436.53 4233.33,4436.53 4233.33,4538.13 4250.26,4538.13 4250.26,4572 4267.2,4572 4267.2,4605.86 4284.13,4605.86 4284.13,4622.8 4301.06,4622.8 4301.06,4673.6 4318,4673.6 4318,4690.53 4334.93,4690.53 4334.93,4724.4 4351.86,4724.4 4351.86,4741.33 4368.8,4741.33 4368.8,4775.2 4385.73,4775.2 4385.73,4809.06 4402.66,4809.06 4402.66,4842.93 4419.6,4842.93 4419.6,4876.8 4436.53,4876.8 4436.53,4910.66 4453.46,4910.66 4453.46,4927.6 4470.4,4927.6 4470.4,4961.46 4487.33,4961.46 4487.33,4978.4 4504.26,4978.4 4504.26,5012.26 4521.2,5012.26 4521.2,5046.13 4538.13,5046.13 4538.13,5080 4555.06,5080 4555.06,5113.86 4572,5113.86 4572,5147.73 "/>
   <polygon class="fil4" points="7162.79,3691.46 6282.26,3691.46 6282.26,3623.73 6248.4,3623.73 6248.4,3606.8 6231.46,3606.8 6231.46,3556 6214.53,3556 6214.53,3522.13 6197.6,3522.13 6197.6,3488.26 6180.66,3488.26 6180.66,3454.4 6163.73,3454.4 6163.73,3420.53 6146.8,3420.53 6146.8,3386.66 6129.86,3386.66 6129.86,3352.8 6112.93,3352.8 6112.93,3335.86 6096,3335.86 6096,3318.93 6079.06,3318.93 6079.06,3302 6062.13,3302 6062.13,3285.06 6045.2,3285.06 6045.2,3217.33 6028.26,3217.33 6028.26,3183.46 6011.33,3183.46 6011.33,3149.6 5994.4,3149.6 5994.4,3115.73 5960.53,3115.73 5960.53,3064.93 5943.6,3064.93 5943.6,3031.06 5909.73,3031.06 5909.73,2946.4 5892.8,2946.4 5892.8,2980.26 5875.86,2980.26 5875.86,2997.2 5858.93,2997.2 5858.93,3031.06 5842,3031.06 5842,3064.93 5825.06,3064.93 5825.06,3098.8 5808.13,3098.8 5808.13,3132.66 5791.2,3132.66 5791.2,3149.6 5774.26,3149.6 5774.26,3183.46 5757.33,3183.46 5757.33,3217.33 5740.4,3217.33 5740.4,3251.2 5723.46,3251.2 5723.46,3268.13 5706.53,3268.13 5706.53,3302 5689.6,3302 5689.6,3335.86 5672.66,3335.86 5672.66,3352.8 5655.73,3352.8 5655.73,3386.66 5638.8,3386.66 5638.8,3420.53 5621.86,3420.53 5621.86,3454.4 5604.93,3454.4 5604.93,3488.26 5588,3488.26 5588,3522.13 5571.06,3522.13 5571.06,3539.06 5554.13,3539.06 5554.13,3572.93 5537.2,3572.93 5537.2,3589.86 5520.26,3589.86 5520.26,3623.73 5503.33,3623.73 5503.33,3657.6 5486.4,3657.6 5486.4,3708.4 7162.79,3708.4 "/>
   <polygon class="fil5" points="5909.73,2980.26 6756.39,2980.26 6756.39,3014.13 6773.33,3014.13 6773.33,2912.53 6705.59,2912.53 6705.59,2895.6 6688.66,2895.6 6688.66,2861.73 6671.73,2861.73 6671.73,2827.86 6654.79,2827.86 6654.79,2810.93 6637.86,2810.93 6637.86,2777.06 6603.99,2777.06 6603.99,2709.33 6570.13,2709.33 6570.13,2675.46 6553.19,2675.46 6553.19,2641.6 6536.26,2641.6 6536.26,2607.73 6519.33,2607.73 6519.33,2573.86 6502.39,2573.86 6502.39,2540 6485.46,2540 6485.46,2506.13 6451.59,2506.13 6451.59,2438.4 6417.73,2438.4 6417.73,2404.53 6400.79,2404.53 6400.79,2336.8 6366.93,2336.8 6366.93,2302.93 6350,2302.93 6350,2252.13 6316.13,2252.13 6316.13,2235.2 6299.2,2235.2 6299.2,2269.06 6282.26,2269.06 6282.26,2302.93 6265.33,2302.93 6265.33,2319.86 6248.4,2319.86 6248.4,2353.73 6231.46,2353.73 6231.46,2387.6 6214.53,2387.6 6214.53,2404.53 6197.6,2404.53 6197.6,2438.4 6180.66,2438.4 6180.66,2472.26 6163.73,2472.26 6163.73,2506.13 6146.8,2506.13 6146.8,2523.06 6129.86,2523.06 6129.86,2556.93 6112.93,2556.93 6112.93,2590.8 6096,2590.8 6096,2624.66 6079.06,2624.66 6079.06,2641.6 6062.13,2641.6 6062.13,2675.46 6045.2,2675.46 6045.2,2709.33 6028.26,2709.33 6028.26,2743.2 6011.33,2743.2 6011.33,2777.06 5994.4,2777.06 5994.4,2794 5977.46,2794 5977.46,2827.86 5960.53,2827.86 5960.53,2861.73 5943.6,2861.73 5943.6,2895.6 5926.66,2895.6 5926.66,2912.53 5909.73,2912.53 "/>
   <polygon class="fil6" points="5435.6,3742.26 5418.66,3742.26 5418.66,3759.2 5452.53,3759.2 5452.53,3776.13 5418.66,3776.13 5418.66,3826.93 5384.8,3826.93 5384.8,3860.8 5367.86,3860.8 5367.86,3894.66 5350.93,3894.66 5350.93,3928.53 5334,3928.53 5334,3962.4 5317.06,3962.4 5317.06,3996.26 5300.13,3996.26 5300.13,4030.13 5283.2,4030.13 5283.2,4064 5266.26,4064 5266.26,4097.86 5232.4,4097.86 5232.4,4165.6 5215.46,4165.6 5215.46,4199.46 5164.66,4199.46 5164.66,4233.33 5147.73,4233.33 5147.73,4301.06 5130.8,4301.06 5130.8,4334.93 5096.93,4334.93 5096.93,4368.8 5080,4368.8 5080,4402.66 5063.06,4402.66 5063.06,4436.53 5080,4436.53 5080,4453.46 5096.93,4453.46 5096.93,4470.4 5808.13,4470.4 5808.13,4453.46 5825.06,4453.46 5825.06,4436.53 5858.93,4436.53 5858.93,4368.8 5842,4368.8 5842,4351.86 5825.06,4351.86 5825.06,4318 5808.13,4318 5808.13,4284.13 5791.2,4284.13 5791.2,4267.2 5774.26,4267.2 5774.26,4233.33 5757.33,4233.33 5757.33,4199.46 5740.4,4199.46 5740.4,4165.6 5723.46,4165.6 5723.46,4131.73 5706.53,4131.73 5706.53,4114.8 5689.6,4114.8 5689.6,4064 5655.73,4064 5655.73,4030.13 5638.8,4030.13 5638.8,3996.26 5621.86,3996.26 5621.86,3962.4 5604.93,3962.4 5604.93,3928.53 5588,3928.53 5588,3894.66 5571.06,3894.66 5571.06,3877.73 5554.13,3877.73 5554.13,3843.86 5537.2,3843.86 5537.2,3810 5520.26,3810 5520.26,3793.06 5503.33,3793.06 5503.33,3759.2 5469.46,3759.2 5469.46,3725.33 5452.53,3725.33 5452.53,3691.46 5435.6,3691.46 "/>
   <polygon class="fil7" points="5452.53,5215.46 5452.53,5266.26 5435.6,5266.26 5435.6,5283.2 5418.66,5283.2 5418.66,5317.06 5384.8,5317.06 5384.8,5350.93 5367.86,5350.93 5367.86,5384.8 5350.93,5384.8 5350.93,5418.66 5334,5418.66 5334,5452.53 5300.13,5452.53 5300.13,5486.4 5283.2,5486.4 5283.2,5520.26 5266.26,5520.26 5266.26,5588 5232.4,5588 5232.4,5655.73 5198.53,5655.73 5198.53,5689.6 5181.6,5689.6 5181.6,5723.46 5164.66,5723.46 5164.66,5740.4 5147.73,5740.4 5147.73,5791.2 5130.8,5791.2 5130.8,5825.06 5096.93,5825.06 5096.93,5858.93 5080,5858.93 5080,5892.8 5046.13,5892.8 5046.13,5943.6 6722.53,5943.6 6722.53,5892.8 6705.59,5892.8 6705.59,5926.66 5909.73,5926.66 5909.73,5892.8 5791.2,5892.8 5791.2,5858.93 5825.06,5858.93 5825.06,5825.06 5808.13,5825.06 5808.13,5791.2 5791.2,5791.2 5791.2,5723.46 5757.33,5723.46 5757.33,5689.6 5689.6,5689.6 5689.6,5588 5672.66,5588 5672.66,5554.13 5655.73,5554.13 5655.73,5520.26 5621.86,5520.26 5621.86,5486.4 5604.93,5486.4 5604.93,5418.66 5571.06,5418.66 5571.06,5384.8 5554.13,5384.8 5554.13,5317.06 5520.26,5317.06 5520.26,5283.2 5503.33,5283.2 5503.33,5249.33 5486.4,5249.33 5486.4,5198.53 5503.33,5198.53 5503.33,5181.6 5469.46,5181.6 5469.46,5215.46 "/>
   <polygon class="fil8" points="4199.46,2980.26 4199.46,2963.33 4182.53,2963.33 4182.53,2946.4 4165.6,2946.4 4165.6,2929.46 4148.66,2929.46 4148.66,2844.8 4131.73,2844.8 4131.73,2810.93 4097.86,2810.93 4097.86,2777.06 4080.93,2777.06 4080.93,2760.13 4064,2760.13 4064,2709.33 4047.06,2709.33 4047.06,2675.46 4030.13,2675.46 4030.13,2658.53 4013.2,2658.53 4013.2,2641.6 3996.26,2641.6 3996.26,2607.73 3979.33,2607.73 3979.33,2573.86 3962.4,2573.86 3962.4,2523.06 3945.46,2523.06 3945.46,2506.13 3928.53,2506.13 3928.53,2489.2 3911.6,2489.2 3911.6,2472.26 3894.66,2472.26 3894.66,2438.4 3877.73,2438.4 3877.73,2387.6 3860.8,2387.6 3860.8,2370.66 3843.86,2370.66 3843.86,2353.73 3826.93,2353.73 3826.93,2336.8 3810,2336.8 3810,2286 3793.06,2286 3793.06,2269.06 3776.13,2269.06 3776.13,2235.2 3759.2,2235.2 3759.2,2269.06 3742.26,2269.06 3742.26,2302.93 3725.33,2302.93 3725.33,2319.86 3708.4,2319.86 3708.4,2353.73 3691.46,2353.73 3691.46,2370.66 3674.53,2370.66 3674.53,2404.53 3657.6,2404.53 3657.6,2438.4 3640.66,2438.4 3640.66,2472.26 3623.73,2472.26 3623.73,2506.13 3606.8,2506.13 3606.8,2540 3589.86,2540 3589.86,2556.93 3572.93,2556.93 3572.93,2590.8 3556,2590.8 3556,2607.73 3539.06,2607.73 3539.06,2641.6 3522.13,2641.6 3522.13,2692.4 3505.2,2692.4 3505.2,2709.33 3488.26,2709.33 3488.26,2743.2 3471.33,2743.2 3471.33,2760.13 3454.4,2760.13 3454.4,2810.93 3420.53,2810.93 3420.53,2861.73 3403.6,2861.73 3403.6,2878.66 3386.66,2878.66 3386.66,2912.53 3369.73,2912.53 3369.73,2980.26 3420.53,2980.26 3420.53,2963.33 3454.4,2963.33 3454.4,2980.26 "/>
   <polygon class="fil9" points="6316.13,2235.2 6316.13,2252.13 6350,2252.13 6350,2302.93 6366.93,2302.93 6366.93,2336.8 6400.79,2336.8 6400.79,2404.53 6417.73,2404.53 6417.73,2438.4 6451.59,2438.4 6451.59,2506.13 6485.46,2506.13 6485.46,2540 6502.39,2540 6502.39,2573.86 6519.33,2573.86 6519.33,2607.73 6536.26,2607.73 6536.26,2641.6 6553.19,2641.6 6553.19,2675.46 6570.13,2675.46 6570.13,2709.33 6603.99,2709.33 6603.99,2777.06 6637.86,2777.06 6637.86,2810.93 6654.79,2810.93 6654.79,2827.86 6671.73,2827.86 6671.73,2861.73 6688.66,2861.73 6688.66,2895.6 6705.59,2895.6 6705.59,2912.53 6773.33,2912.53 6773.33,2878.66 6790.26,2878.66 6790.26,2844.8 6824.13,2844.8 6824.13,2777.06 6857.99,2777.06 6857.99,2743.2 6874.93,2743.2 6874.93,2709.33 6908.79,2709.33 6908.79,2641.6 6925.73,2641.6 6925.73,2607.73 6959.59,2607.73 6959.59,2573.86 6976.53,2573.86 6976.53,2540 6993.46,2540 6993.46,2506.13 7027.33,2506.13 7027.33,2472.26 7044.26,2472.26 7044.26,2404.53 7061.19,2404.53 7061.19,2370.66 7095.06,2370.66 7095.06,2336.8 7111.99,2336.8 7111.99,2269.06 7145.86,2269.06 7145.86,2252.13 7958.66,2252.13 7958.66,2235.2 7941.73,2235.2 7941.73,2218.26 7924.79,2218.26 7924.79,2235.2 6434.66,2235.2 6434.66,2218.26 6366.93,2218.26 6366.93,2235.2 "/>
   <polygon class="fil10" points="5046.13,5926.66 5046.13,5892.8 5080,5892.8 5080,5858.93 5096.93,5858.93 5096.93,5825.06 5130.8,5825.06 5130.8,5791.2 5147.73,5791.2 5147.73,5740.4 5164.66,5740.4 5164.66,5723.46 5181.6,5723.46 5181.6,5689.6 5198.53,5689.6 5198.53,5655.73 5232.4,5655.73 5232.4,5588 5266.26,5588 5266.26,5520.26 5283.2,5520.26 5283.2,5486.4 5300.13,5486.4 5300.13,5452.53 5334,5452.53 5334,5418.66 5350.93,5418.66 5350.93,5384.8 5367.86,5384.8 5367.86,5350.93 5384.8,5350.93 5384.8,5317.06 5418.66,5317.06 5418.66,5283.2 5435.6,5283.2 5435.6,5266.26 5452.53,5266.26 5452.53,5198.53 4809.06,5198.53 4809.06,5215.46 4741.33,5215.46 4741.33,5232.4 4724.4,5232.4 4724.4,5249.33 4707.46,5249.33 4707.46,5215.46 4724.4,5215.46 4724.4,5198.53 4690.53,5198.53 4690.53,5181.6 4673.6,5181.6 4673.6,5147.73 4605.86,5147.73 4605.86,5215.46 4639.73,5215.46 4639.73,5249.33 4656.66,5249.33 4656.66,5283.2 4673.6,5283.2 4673.6,5317.06 4690.53,5317.06 4690.53,5350.93 4707.46,5350.93 4707.46,5384.8 4724.4,5384.8 4724.4,5401.73 4741.33,5401.73 4741.33,5435.6 4758.26,5435.6 4758.26,5452.53 4775.2,5452.53 4775.2,5486.4 4792.13,5486.4 4792.13,5520.26 4809.06,5520.26 4809.06,5554.13 4826,5554.13 4826,5588 4842.93,5588 4842.93,5621.86 4859.86,5621.86 4859.86,5638.8 4876.8,5638.8 4876.8,5689.6 4910.66,5689.6 4910.66,5723.46 4927.6,5723.46 4927.6,5757.33 4944.53,5757.33 4944.53,5791.2 4961.46,5791.2 4961.46,5825.06 4978.4,5825.06 4978.4,5858.93 4995.33,5858.93 4995.33,5875.86 5012.26,5875.86 5012.26,5926.66 "/>
   <polygon class="fil11" points="4250.26,2980.26 5029.2,2980.26 5029.2,2912.53 5012.26,2912.53 5012.26,2895.6 4995.33,2895.6 4995.33,2861.73 4978.4,2861.73 4978.4,2844.8 4961.46,2844.8 4961.46,2810.93 4944.53,2810.93 4944.53,2777.06 4927.6,2777.06 4927.6,2743.2 4910.66,2743.2 4910.66,2709.33 4893.73,2709.33 4893.73,2692.4 4876.8,2692.4 4876.8,2658.53 4859.86,2658.53 4859.86,2624.66 4842.93,2624.66 4842.93,2607.73 4826,2607.73 4826,2573.86 4809.06,2573.86 4809.06,2540 4792.13,2540 4792.13,2506.13 4775.2,2506.13 4775.2,2472.26 4758.26,2472.26 4758.26,2455.33 4741.33,2455.33 4741.33,2421.46 4724.4,2421.46 4724.4,2387.6 4707.46,2387.6 4707.46,2370.66 4690.53,2370.66 4690.53,2336.8 4673.6,2336.8 4673.6,2302.93 4656.66,2302.93 4656.66,2269.06 4572,2269.06 4572,2302.93 4555.06,2302.93 4555.06,2370.66 4521.2,2370.66 4521.2,2404.53 4487.33,2404.53 4487.33,2472.26 4470.4,2472.26 4470.4,2540 4419.6,2540 4419.6,2607.73 4385.73,2607.73 4385.73,2675.46 4351.86,2675.46 4351.86,2709.33 4334.93,2709.33 4334.93,2810.93 4301.06,2810.93 4301.06,2827.86 4267.2,2827.86 4267.2,2878.66 4250.26,2878.66 4250.26,2895.6 4233.33,2895.6 4233.33,2946.4 4250.26,2946.4 "/>
   <polygon class="fil12" points="2980.26,5147.73 2895.6,5147.73 2895.6,5164.66 2912.53,5164.66 2912.53,5215.46 2946.4,5215.46 2946.4,5249.33 2963.33,5249.33 2963.33,5283.2 2980.26,5283.2 2980.26,5317.06 2997.2,5317.06 2997.2,5350.93 3014.13,5350.93 3014.13,5384.8 3031.06,5384.8 3031.06,5401.73 3048,5401.73 3048,5435.6 3064.93,5435.6 3064.93,5452.53 3081.86,5452.53 3081.86,5486.4 3098.8,5486.4 3098.8,5520.26 3115.73,5520.26 3115.73,5554.13 3132.66,5554.13 3132.66,5571.06 3149.6,5571.06 3149.6,5621.86 3166.53,5621.86 3166.53,5638.8 3183.46,5638.8 3183.46,5672.66 3200.4,5672.66 3200.4,5706.53 3217.33,5706.53 3217.33,5740.4 3234.26,5740.4 3234.26,5757.33 3251.2,5757.33 3251.2,5791.2 3268.13,5791.2 3268.13,5825.06 3285.06,5825.06 3285.06,5858.93 3302,5858.93 3302,5875.86 3318.93,5875.86 3318.93,5909.73 3335.86,5909.73 3335.86,5926.66 3369.73,5926.66 3369.73,5892.8 3386.66,5892.8 3386.66,5858.93 3403.6,5858.93 3403.6,5842 3420.53,5842 3420.53,5808.13 3437.46,5808.13 3437.46,5791.2 3454.4,5791.2 3454.4,5757.33 3471.33,5757.33 3471.33,5723.46 3488.26,5723.46 3488.26,5689.6 3505.2,5689.6 3505.2,5672.66 3522.13,5672.66 3522.13,5621.86 3539.06,5621.86 3539.06,5604.93 3556,5604.93 3556,5554.13 3572.93,5554.13 3572.93,5537.2 3589.86,5537.2 3589.86,5503.33 3606.8,5503.33 3606.8,5486.4 3623.73,5486.4 3623.73,5452.53 3640.66,5452.53 3640.66,5418.66 3657.6,5418.66 3657.6,5384.8 3674.53,5384.8 3674.53,5367.86 3691.46,5367.86 3691.46,5334 3708.4,5334 3708.4,5317.06 3725.33,5317.06 3725.33,5249.33 3691.46,5249.33 3691.46,5232.4 3674.53,5232.4 3674.53,5249.33 3657.6,5249.33 3657.6,5215.46 3640.66,5215.46 3640.66,5198.53 3081.86,5198.53 3081.86,5181.6 2980.26,5181.6 "/>
   <polygon class="fil13" points="6316.13,5215.46 6316.13,5181.6 6265.33,5181.6 6265.33,5198.53 5520.26,5198.53 5520.26,5181.6 5503.33,5181.6 5503.33,5198.53 5486.4,5198.53 5486.4,5249.33 5503.33,5249.33 5503.33,5283.2 5520.26,5283.2 5520.26,5317.06 5554.13,5317.06 5554.13,5384.8 5571.06,5384.8 5571.06,5418.66 5604.93,5418.66 5604.93,5486.4 5621.86,5486.4 5621.86,5520.26 5655.73,5520.26 5655.73,5554.13 5672.66,5554.13 5672.66,5588 5689.6,5588 5689.6,5689.6 5757.33,5689.6 5757.33,5723.46 5791.2,5723.46 5791.2,5791.2 5808.13,5791.2 5808.13,5825.06 5825.06,5825.06 5825.06,5858.93 5791.2,5858.93 5791.2,5892.8 5943.6,5892.8 5943.6,5825.06 5960.53,5825.06 5960.53,5774.26 5977.46,5774.26 5977.46,5757.33 5994.4,5757.33 5994.4,5740.4 6011.33,5740.4 6011.33,5689.6 6045.2,5689.6 6045.2,5655.73 6062.13,5655.73 6062.13,5604.93 6079.06,5604.93 6079.06,5588 6096,5588 6096,5554.13 6129.86,5554.13 6129.86,5520.26 6146.8,5520.26 6146.8,5486.4 6163.73,5486.4 6163.73,5452.53 6180.66,5452.53 6180.66,5418.66 6197.6,5418.66 6197.6,5384.8 6231.46,5384.8 6231.46,5283.2 6248.4,5283.2 6248.4,5266.26 6282.26,5266.26 6282.26,5232.4 6299.2,5232.4 6299.2,5215.46 "/>
   <polygon class="fil14" points="3352.8,4470.4 3369.73,4470.4 3369.73,4504.26 3403.6,4504.26 3403.6,4470.4 3386.66,4470.4 3386.66,4453.46 4064,4453.46 4064,4436.53 4131.73,4436.53 4131.73,4470.4 4097.86,4470.4 4097.86,4487.33 4114.8,4487.33 4114.8,4572 4148.66,4572 4148.66,4538.13 4165.6,4538.13 4165.6,4470.4 4216.4,4470.4 4216.4,4504.26 4233.33,4504.26 4233.33,4436.53 4165.6,4436.53 4165.6,4368.8 4148.66,4368.8 4148.66,4334.93 4097.86,4334.93 4097.86,4267.2 4080.93,4267.2 4080.93,4250.26 4064,4250.26 4064,4199.46 4030.13,4199.46 4030.13,4148.66 4013.2,4148.66 4013.2,4114.8 3996.26,4114.8 3996.26,4097.86 3979.33,4097.86 3979.33,4064 3945.46,4064 3945.46,4030.13 3928.53,4030.13 3928.53,3962.4 3894.66,3962.4 3894.66,3928.53 3877.73,3928.53 3877.73,3894.66 3860.8,3894.66 3860.8,3826.93 3843.86,3826.93 3843.86,3793.06 3708.4,3793.06 3708.4,3860.8 3674.53,3860.8 3674.53,3928.53 3640.66,3928.53 3640.66,3962.4 3623.73,3962.4 3623.73,3996.26 3606.8,3996.26 3606.8,4030.13 3589.86,4030.13 3589.86,4047.06 3572.93,4047.06 3572.93,4064 3522.13,4064 3522.13,4148.66 3505.2,4148.66 3505.2,4199.46 3471.33,4199.46 3471.33,4267.2 3437.46,4267.2 3437.46,4301.06 3420.53,4301.06 3420.53,4334.93 3403.6,4334.93 3403.6,4368.8 3386.66,4368.8 3386.66,4402.66 3352.8,4402.66 "/>
   <polygon class="fil15" points="5503.33,5181.6 5520.26,5181.6 5520.26,5198.53 6265.33,5198.53 6265.33,5181.6 6299.2,5181.6 6299.2,5147.73 6282.26,5147.73 6282.26,5113.86 6265.33,5113.86 6265.33,5080 6248.4,5080 6248.4,5063.06 6231.46,5063.06 6231.46,5029.2 6214.53,5029.2 6214.53,5012.26 6197.6,5012.26 6197.6,4961.46 6180.66,4961.46 6180.66,4944.53 6163.73,4944.53 6163.73,4910.66 6146.8,4910.66 6146.8,4876.8 6129.86,4876.8 6129.86,4842.93 6112.93,4842.93 6112.93,4809.06 6096,4809.06 6096,4792.13 6079.06,4792.13 6079.06,4775.2 6062.13,4775.2 6062.13,4741.33 6045.2,4741.33 6045.2,4707.46 6028.26,4707.46 6028.26,4673.6 6011.33,4673.6 6011.33,4639.73 5994.4,4639.73 5994.4,4605.86 5977.46,4605.86 5977.46,4588.93 5960.53,4588.93 5960.53,4538.13 5943.6,4538.13 5943.6,4521.2 5926.66,4521.2 5926.66,4504.26 5909.73,4504.26 5909.73,4470.4 5875.86,4470.4 5875.86,4453.46 5858.93,4453.46 5858.93,4538.13 5825.06,4538.13 5825.06,4572 5791.2,4572 5791.2,4656.66 5774.26,4656.66 5774.26,4673.6 5757.33,4673.6 5757.33,4707.46 5740.4,4707.46 5740.4,4741.33 5723.46,4741.33 5723.46,4775.2 5689.6,4775.2 5689.6,4842.93 5672.66,4842.93 5672.66,4876.8 5638.8,4876.8 5638.8,4910.66 5621.86,4910.66 5621.86,4944.53 5604.93,4944.53 5604.93,4978.4 5588,4978.4 5588,5012.26 5554.13,5012.26 5554.13,5046.13 5537.2,5046.13 5537.2,5063.06 5520.26,5063.06 5520.26,5113.86 5503.33,5113.86 "/>
   <polygon class="fil16" points="4165.6,4419.6 4233.33,4419.6 4233.33,4402.66 4250.26,4402.66 4250.26,4368.8 4267.2,4368.8 4267.2,4334.93 4284.13,4334.93 4284.13,4301.06 4301.06,4301.06 4301.06,4267.2 4318,4267.2 4318,4233.33 4334.93,4233.33 4334.93,4165.6 4351.86,4165.6 4351.86,4131.73 4385.73,4131.73 4385.73,4097.86 4402.66,4097.86 4402.66,4064 4436.53,4064 4436.53,3962.4 4470.4,3962.4 4470.4,3928.53 4504.26,3928.53 4504.26,3894.66 4521.2,3894.66 4521.2,3860.8 4538.13,3860.8 4538.13,3826.93 4572,3826.93 4572,3793.06 4588.93,3793.06 4588.93,3759.2 4605.86,3759.2 4605.86,3708.4 3793.06,3708.4 3793.06,3793.06 3843.86,3793.06 3843.86,3826.93 3860.8,3826.93 3860.8,3894.66 3877.73,3894.66 3877.73,3928.53 3894.66,3928.53 3894.66,3962.4 3928.53,3962.4 3928.53,4030.13 3945.46,4030.13 3945.46,4064 3979.33,4064 3979.33,4097.86 3996.26,4097.86 3996.26,4114.8 4013.2,4114.8 4013.2,4148.66 4030.13,4148.66 4030.13,4199.46 4064,4199.46 4064,4250.26 4080.93,4250.26 4080.93,4267.2 4097.86,4267.2 4097.86,4334.93 4148.66,4334.93 4148.66,4368.8 4165.6,4368.8 "/>
   <polygon class="fil17" points="2540,4504.26 2540,4470.4 2590.8,4470.4 2590.8,4504.26 2658.53,4504.26 2658.53,4487.33 2641.6,4487.33 2641.6,4470.4 2675.46,4470.4 2675.46,4504.26 2692.4,4504.26 2692.4,4470.4 3285.06,4470.4 3285.06,4504.26 3335.86,4504.26 3335.86,4470.4 3318.93,4470.4 3318.93,4436.53 3268.13,4436.53 3268.13,4402.66 3251.2,4402.66 3251.2,4368.8 2980.26,4368.8 2980.26,4301.06 3014.13,4301.06 3014.13,4334.93 3251.2,4334.93 3251.2,4301.06 3234.26,4301.06 3234.26,4233.33 3183.46,4233.33 3183.46,4199.46 3149.6,4199.46 3149.6,4165.6 3166.53,4165.6 3166.53,4131.73 3132.66,4131.73 3132.66,4064 3098.8,4064 3098.8,3996.26 3115.73,3996.26 3115.73,3962.4 3064.93,3962.4 3064.93,3928.53 3081.86,3928.53 3081.86,3894.66 2997.2,3894.66 2997.2,3793.06 2946.4,3793.06 2946.4,3725.33 2895.6,3725.33 2895.6,3759.2 2878.66,3759.2 2878.66,3793.06 2861.73,3793.06 2861.73,3826.93 2844.8,3826.93 2844.8,3860.8 2827.86,3860.8 2827.86,3894.66 2810.93,3894.66 2810.93,3928.53 2794,3928.53 2794,3945.46 2777.06,3945.46 2777.06,3996.26 2743.2,3996.26 2743.2,4047.06 2726.26,4047.06 2726.26,4064 2709.33,4064 2709.33,4097.86 2692.4,4097.86 2692.4,4131.73 2675.46,4131.73 2675.46,4165.6 2658.53,4165.6 2658.53,4182.53 2641.6,4182.53 2641.6,4216.4 2624.66,4216.4 2624.66,4250.26 2607.73,4250.26 2607.73,4267.2 2590.8,4267.2 2590.8,4301.06 2573.86,4301.06 2573.86,4334.93 2556.93,4334.93 2556.93,4368.8 2540,4368.8 2540,4402.66 2523.06,4402.66 2523.06,4419.6 2506.13,4419.6 2506.13,4504.26 "/>
   <polygon class="fil18" points="3318.93,4504.26 3318.93,4538.13 3302,4538.13 3302,4572 3268.13,4572 3268.13,4605.86 3251.2,4605.86 3251.2,4639.73 3234.26,4639.73 3234.26,4673.6 3217.33,4673.6 3217.33,4707.46 3200.4,4707.46 3200.4,4741.33 3183.46,4741.33 3183.46,4775.2 3149.6,4775.2 3149.6,4842.93 3115.73,4842.93 3115.73,4876.8 3098.8,4876.8 3098.8,4927.6 3081.86,4927.6 3081.86,4978.4 3048,4978.4 3048,5012.26 3031.06,5012.26 3031.06,5046.13 2997.2,5046.13 2997.2,5080 2980.26,5080 2980.26,5181.6 3081.86,5181.6 3081.86,5198.53 3640.66,5198.53 3640.66,5215.46 3657.6,5215.46 3657.6,5249.33 3674.53,5249.33 3674.53,5232.4 3691.46,5232.4 3691.46,5249.33 3725.33,5249.33 3725.33,5266.26 3742.26,5266.26 3742.26,5249.33 3759.2,5249.33 3759.2,5215.46 3776.13,5215.46 3776.13,5147.73 3725.33,5147.73 3725.33,5113.86 3708.4,5113.86 3708.4,5046.13 3674.53,5046.13 3674.53,5012.26 3657.6,5012.26 3657.6,4978.4 3640.66,4978.4 3640.66,4944.53 3623.73,4944.53 3623.73,4910.66 3606.8,4910.66 3606.8,4876.8 3589.86,4876.8 3589.86,4842.93 3572.93,4842.93 3572.93,4809.06 3539.06,4809.06 3539.06,4775.2 3522.13,4775.2 3522.13,4707.46 3488.26,4707.46 3488.26,4673.6 3471.33,4673.6 3471.33,4639.73 3454.4,4639.73 3454.4,4605.86 3403.6,4605.86 3403.6,4555.06 3386.66,4555.06 3386.66,4504.26 3369.73,4504.26 3369.73,4470.4 3335.86,4470.4 3335.86,4504.26 "/>
   <polygon class="fil19" points="4656.66,5147.73 4673.6,5147.73 4673.6,5181.6 4690.53,5181.6 4690.53,5198.53 4724.4,5198.53 4724.4,5215.46 4707.46,5215.46 4707.46,5249.33 4724.4,5249.33 4724.4,5232.4 4741.33,5232.4 4741.33,5215.46 4809.06,5215.46 4809.06,5198.53 5452.53,5198.53 5452.53,5113.86 5418.66,5113.86 5418.66,5063.06 5401.73,5063.06 5401.73,5046.13 5384.8,5046.13 5384.8,5012.26 5367.86,5012.26 5367.86,4961.46 5350.93,4961.46 5350.93,4944.53 5334,4944.53 5334,4927.6 5317.06,4927.6 5317.06,4893.73 5300.13,4893.73 5300.13,4876.8 5283.2,4876.8 5283.2,4842.93 5266.26,4842.93 5266.26,4809.06 5249.33,4809.06 5249.33,4792.13 5215.46,4792.13 5215.46,4741.33 5198.53,4741.33 5198.53,4724.4 5181.6,4724.4 5181.6,4690.53 5164.66,4690.53 5164.66,4673.6 5147.73,4673.6 5147.73,4605.86 5113.86,4605.86 5113.86,4572 5096.93,4572 5096.93,4538.13 5080,4538.13 5080,4521.2 5063.06,4521.2 5063.06,4504.26 5046.13,4504.26 5046.13,4436.53 5029.2,4436.53 5029.2,4470.4 4995.33,4470.4 4995.33,4538.13 5012.26,4538.13 5012.26,4605.86 4961.46,4605.86 4961.46,4639.73 4927.6,4639.73 4927.6,4707.46 4876.8,4707.46 4876.8,4741.33 4859.86,4741.33 4859.86,4809.06 4809.06,4809.06 4809.06,4893.73 4792.13,4893.73 4792.13,4944.53 4775.2,4944.53 4775.2,4978.4 4758.26,4978.4 4758.26,4995.33 4741.33,4995.33 4741.33,5012.26 4707.46,5012.26 4707.46,5113.86 4673.6,5113.86 4673.6,5130.8 4656.66,5130.8 "/>
   <polygon class="fil20" points="7111.99,2336.8 7230.53,2336.8 7230.53,2370.66 7247.46,2370.66 7247.46,2404.53 7264.39,2404.53 7264.39,2438.4 7315.19,2438.4 7315.19,2540 7332.13,2540 7332.13,2573.86 7382.93,2573.86 7382.93,2641.6 7399.86,2641.6 7399.86,2709.33 7467.59,2709.33 7467.59,2777.06 7484.53,2777.06 7484.53,2844.8 7518.39,2844.8 7518.39,2878.66 7552.26,2878.66 7552.26,2912.53 7535.33,2912.53 7535.33,2929.46 7518.39,2929.46 7518.39,2997.2 7501.46,2997.2 7501.46,3048 7484.53,3048 7484.53,3081.86 7535.33,3081.86 7535.33,3048 7552.26,3048 7552.26,3014.13 7569.19,3014.13 7569.19,2980.26 7586.13,2980.26 7586.13,2963.33 7603.06,2963.33 7603.06,2929.46 7619.99,2929.46 7619.99,2895.6 7636.93,2895.6 7636.93,2878.66 7653.86,2878.66 7653.86,2844.8 7670.79,2844.8 7670.79,2810.93 7687.73,2810.93 7687.73,2777.06 7704.66,2777.06 7704.66,2760.13 7721.59,2760.13 7721.59,2726.26 7738.53,2726.26 7738.53,2692.4 7755.46,2692.4 7755.46,2658.53 7772.39,2658.53 7772.39,2624.66 7789.33,2624.66 7789.33,2607.73 7806.26,2607.73 7806.26,2573.86 7823.19,2573.86 7823.19,2540 7840.13,2540 7840.13,2506.13 7857.06,2506.13 7857.06,2489.2 7873.99,2489.2 7873.99,2455.33 7890.93,2455.33 7890.93,2421.46 7907.86,2421.46 7907.86,2387.6 7924.79,2387.6 7924.79,2370.66 7941.73,2370.66 7941.73,2336.8 7958.66,2336.8 7958.66,2302.93 7975.59,2302.93 7975.59,2269.06 7992.53,2269.06 7992.53,2235.2 7958.66,2235.2 7958.66,2252.13 7145.86,2252.13 7145.86,2269.06 7111.99,2269.06 "/>
   <polygon class="fil21" points="4199.46,2980.26 4250.26,2980.26 4250.26,2946.4 4233.33,2946.4 4233.33,2895.6 4250.26,2895.6 4250.26,2878.66 4267.2,2878.66 4267.2,2827.86 4301.06,2827.86 4301.06,2810.93 4334.93,2810.93 4334.93,2709.33 4351.86,2709.33 4351.86,2675.46 4385.73,2675.46 4385.73,2607.73 4419.6,2607.73 4419.6,2540 4470.4,2540 4470.4,2472.26 4487.33,2472.26 4487.33,2404.53 4521.2,2404.53 4521.2,2370.66 4555.06,2370.66 4555.06,2302.93 4572,2302.93 4572,2269.06 4639.73,2269.06 4639.73,2235.2 3793.06,2235.2 3793.06,2218.26 3776.13,2218.26 3776.13,2269.06 3793.06,2269.06 3793.06,2286 3810,2286 3810,2336.8 3826.93,2336.8 3826.93,2353.73 3843.86,2353.73 3843.86,2370.66 3860.8,2370.66 3860.8,2387.6 3877.73,2387.6 3877.73,2438.4 3894.66,2438.4 3894.66,2472.26 3911.6,2472.26 3911.6,2489.2 3928.53,2489.2 3928.53,2506.13 3945.46,2506.13 3945.46,2523.06 3962.4,2523.06 3962.4,2573.86 3979.33,2573.86 3979.33,2607.73 3996.26,2607.73 3996.26,2641.6 4013.2,2641.6 4013.2,2658.53 4030.13,2658.53 4030.13,2675.46 4047.06,2675.46 4047.06,2709.33 4064,2709.33 4064,2760.13 4080.93,2760.13 4080.93,2777.06 4097.86,2777.06 4097.86,2810.93 4131.73,2810.93 4131.73,2844.8 4148.66,2844.8 4148.66,2929.46 4165.6,2929.46 4165.6,2946.4 4182.53,2946.4 4182.53,2963.33 4199.46,2963.33 "/>
   <polygon class="fil22" points="3793.06,3708.4 4605.86,3708.4 4605.86,3657.6 4588.93,3657.6 4588.93,3623.73 4555.06,3623.73 4555.06,3589.86 4538.13,3589.86 4538.13,3556 4521.2,3556 4521.2,3522.13 4487.33,3522.13 4487.33,3454.4 4470.4,3454.4 4470.4,3420.53 4453.46,3420.53 4453.46,3403.6 4436.53,3403.6 4436.53,3352.8 4419.6,3352.8 4419.6,3318.93 4402.66,3318.93 4402.66,3285.06 4368.8,3285.06 4368.8,3251.2 4334.93,3251.2 4334.93,3183.46 4301.06,3183.46 4301.06,3115.73 4284.13,3115.73 4284.13,3081.86 4250.26,3081.86 4250.26,3048 4233.33,3048 4233.33,3014.13 4216.4,3014.13 4216.4,2980.26 4165.6,2980.26 4165.6,3048 4148.66,3048 4148.66,3081.86 4131.73,3081.86 4131.73,3115.73 4114.8,3115.73 4114.8,3149.6 4064,3149.6 4064,3251.2 4030.13,3251.2 4030.13,3285.06 4013.2,3285.06 4013.2,3302 3996.26,3302 3996.26,3335.86 3979.33,3335.86 3979.33,3352.8 3962.4,3352.8 3962.4,3403.6 3945.46,3403.6 3945.46,3420.53 3928.53,3420.53 3928.53,3471.33 3894.66,3471.33 3894.66,3488.26 3877.73,3488.26 3877.73,3589.86 3843.86,3589.86 3843.86,3623.73 3826.93,3623.73 3826.93,3657.6 3793.06,3657.6 "/>
   <polygon class="fil23" points="6773.33,2980.26 7501.46,2980.26 7501.46,2997.2 7518.39,2997.2 7518.39,2929.46 7535.33,2929.46 7535.33,2912.53 7552.26,2912.53 7552.26,2878.66 7518.39,2878.66 7518.39,2844.8 7484.53,2844.8 7484.53,2777.06 7467.59,2777.06 7467.59,2709.33 7399.86,2709.33 7399.86,2641.6 7382.93,2641.6 7382.93,2573.86 7332.13,2573.86 7332.13,2540 7315.19,2540 7315.19,2438.4 7264.39,2438.4 7264.39,2404.53 7247.46,2404.53 7247.46,2370.66 7230.53,2370.66 7230.53,2336.8 7095.06,2336.8 7095.06,2370.66 7061.19,2370.66 7061.19,2404.53 7044.26,2404.53 7044.26,2472.26 7027.33,2472.26 7027.33,2506.13 6993.46,2506.13 6993.46,2540 6976.53,2540 6976.53,2573.86 6959.59,2573.86 6959.59,2607.73 6925.73,2607.73 6925.73,2641.6 6908.79,2641.6 6908.79,2709.33 6874.93,2709.33 6874.93,2743.2 6857.99,2743.2 6857.99,2777.06 6824.13,2777.06 6824.13,2844.8 6790.26,2844.8 6790.26,2878.66 6773.33,2878.66 "/>
   <polygon class="fil24" points="3386.66,4504.26 3386.66,4555.06 3403.6,4555.06 3403.6,4605.86 3454.4,4605.86 3454.4,4639.73 3471.33,4639.73 3471.33,4673.6 3488.26,4673.6 3488.26,4707.46 3522.13,4707.46 3522.13,4775.2 3539.06,4775.2 3539.06,4809.06 3572.93,4809.06 3572.93,4842.93 3589.86,4842.93 3589.86,4876.8 3606.8,4876.8 3606.8,4910.66 3623.73,4910.66 3623.73,4944.53 3640.66,4944.53 3640.66,4978.4 3657.6,4978.4 3657.6,5012.26 3674.53,5012.26 3674.53,5046.13 3708.4,5046.13 3708.4,5113.86 3725.33,5113.86 3725.33,5147.73 3776.13,5147.73 3776.13,5181.6 3793.06,5181.6 3793.06,5147.73 3810,5147.73 3810,5130.8 3826.93,5130.8 3826.93,5096.93 3843.86,5096.93 3843.86,5080 3860.8,5080 3860.8,5046.13 3877.73,5046.13 3877.73,5012.26 3894.66,5012.26 3894.66,4978.4 3911.6,4978.4 3911.6,4944.53 3928.53,4944.53 3928.53,4910.66 3945.46,4910.66 3945.46,4876.8 3962.4,4876.8 3962.4,4859.86 3979.33,4859.86 3979.33,4826 3996.26,4826 3996.26,4809.06 4013.2,4809.06 4013.2,4775.2 4030.13,4775.2 4030.13,4741.33 4047.06,4741.33 4047.06,4707.46 4064,4707.46 4064,4673.6 4080.93,4673.6 4080.93,4656.66 4097.86,4656.66 4097.86,4605.86 4131.73,4605.86 4131.73,4572 4114.8,4572 4114.8,4487.33 4097.86,4487.33 4097.86,4470.4 4131.73,4470.4 4131.73,4436.53 4064,4436.53 4064,4453.46 3386.66,4453.46 3386.66,4470.4 3403.6,4470.4 3403.6,4504.26 "/>
   <polygon class="fil25" points="3386.66,2980.26 3386.66,3048 3420.53,3048 3420.53,3115.73 3437.46,3115.73 3437.46,3149.6 3454.4,3149.6 3454.4,3166.53 3471.33,3166.53 3471.33,3183.46 3488.26,3183.46 3488.26,3217.33 3505.2,3217.33 3505.2,3251.2 3522.13,3251.2 3522.13,3302 3539.06,3302 3539.06,3335.86 3556,3335.86 3556,3352.8 3572.93,3352.8 3572.93,3386.66 3606.8,3386.66 3606.8,3437.46 3623.73,3437.46 3623.73,3488.26 3657.6,3488.26 3657.6,3522.13 3674.53,3522.13 3674.53,3556 3691.46,3556 3691.46,3606.8 3708.4,3606.8 3708.4,3623.73 3725.33,3623.73 3725.33,3657.6 3742.26,3657.6 3742.26,3691.46 3793.06,3691.46 3793.06,3657.6 3826.93,3657.6 3826.93,3623.73 3843.86,3623.73 3843.86,3589.86 3877.73,3589.86 3877.73,3488.26 3894.66,3488.26 3894.66,3471.33 3928.53,3471.33 3928.53,3420.53 3945.46,3420.53 3945.46,3403.6 3962.4,3403.6 3962.4,3352.8 3979.33,3352.8 3979.33,3335.86 3996.26,3335.86 3996.26,3302 4013.2,3302 4013.2,3285.06 4030.13,3285.06 4030.13,3251.2 4064,3251.2 4064,3149.6 4114.8,3149.6 4114.8,3115.73 4131.73,3115.73 4131.73,3081.86 4148.66,3081.86 4148.66,3048 4165.6,3048 4165.6,2980.26 3454.4,2980.26 3454.4,2963.33 3420.53,2963.33 3420.53,2980.26 "/>
   <polygon class="fil26" points="5909.73,5892.8 5909.73,5926.66 6705.59,5926.66 6705.59,5858.93 6688.66,5858.93 6688.66,5825.06 6671.73,5825.06 6671.73,5791.2 6654.79,5791.2 6654.79,5774.26 6637.86,5774.26 6637.86,5740.4 6620.93,5740.4 6620.93,5723.46 6603.99,5723.46 6603.99,5689.6 6587.06,5689.6 6587.06,5655.73 6570.13,5655.73 6570.13,5621.86 6553.19,5621.86 6553.19,5588 6536.26,5588 6536.26,5554.13 6519.33,5554.13 6519.33,5537.2 6502.39,5537.2 6502.39,5503.33 6485.46,5503.33 6485.46,5486.4 6468.53,5486.4 6468.53,5452.53 6451.59,5452.53 6451.59,5418.66 6434.66,5418.66 6434.66,5384.8 6417.73,5384.8 6417.73,5350.93 6400.79,5350.93 6400.79,5334 6383.86,5334 6383.86,5300.13 6366.93,5300.13 6366.93,5266.26 6350,5266.26 6350,5232.4 6333.06,5232.4 6333.06,5215.46 6299.2,5215.46 6299.2,5232.4 6282.26,5232.4 6282.26,5266.26 6248.4,5266.26 6248.4,5283.2 6231.46,5283.2 6231.46,5384.8 6197.6,5384.8 6197.6,5418.66 6180.66,5418.66 6180.66,5452.53 6163.73,5452.53 6163.73,5486.4 6146.8,5486.4 6146.8,5520.26 6129.86,5520.26 6129.86,5554.13 6096,5554.13 6096,5588 6079.06,5588 6079.06,5604.93 6062.13,5604.93 6062.13,5655.73 6045.2,5655.73 6045.2,5689.6 6011.33,5689.6 6011.33,5740.4 5994.4,5740.4 5994.4,5757.33 5977.46,5757.33 5977.46,5774.26 5960.53,5774.26 5960.53,5825.06 5943.6,5825.06 5943.6,5892.8 "/>
   <polygon class="fil27" points="4165.6,4419.6 4165.6,4436.53 4267.2,4436.53 4267.2,4470.4 4301.06,4470.4 4301.06,4453.46 4334.93,4453.46 4334.93,4436.53 5012.26,4436.53 5012.26,4368.8 4995.33,4368.8 4995.33,4334.93 4978.4,4334.93 4978.4,4301.06 4961.46,4301.06 4961.46,4267.2 4944.53,4267.2 4944.53,4250.26 4893.73,4250.26 4893.73,4199.46 4876.8,4199.46 4876.8,4148.66 4859.86,4148.66 4859.86,4097.86 4826,4097.86 4826,4064 4809.06,4064 4809.06,3979.33 4792.13,3979.33 4792.13,3962.4 4775.2,3962.4 4775.2,3945.46 4758.26,3945.46 4758.26,3928.53 4741.33,3928.53 4741.33,3894.66 4724.4,3894.66 4724.4,3877.73 4690.53,3877.73 4690.53,3843.86 4673.6,3843.86 4673.6,3826.93 4656.66,3826.93 4656.66,3793.06 4639.73,3793.06 4639.73,3725.33 4605.86,3725.33 4605.86,3759.2 4588.93,3759.2 4588.93,3793.06 4572,3793.06 4572,3826.93 4538.13,3826.93 4538.13,3860.8 4521.2,3860.8 4521.2,3894.66 4504.26,3894.66 4504.26,3928.53 4470.4,3928.53 4470.4,3962.4 4436.53,3962.4 4436.53,4064 4402.66,4064 4402.66,4097.86 4385.73,4097.86 4385.73,4131.73 4351.86,4131.73 4351.86,4165.6 4334.93,4165.6 4334.93,4233.33 4318,4233.33 4318,4267.2 4301.06,4267.2 4301.06,4301.06 4284.13,4301.06 4284.13,4334.93 4267.2,4334.93 4267.2,4368.8 4250.26,4368.8 4250.26,4402.66 4233.33,4402.66 4233.33,4419.6 "/>
   <polygon class="fil28" points="7128.93,3691.46 7179.73,3691.46 7179.73,3674.53 7196.66,3674.53 7196.66,3640.66 7213.59,3640.66 7213.59,3606.8 7230.53,3606.8 7230.53,3572.93 7247.46,3572.93 7247.46,3556 7264.39,3556 7264.39,3522.13 7281.33,3522.13 7281.33,3488.26 7298.26,3488.26 7298.26,3454.4 7315.19,3454.4 7315.19,3437.46 7332.13,3437.46 7332.13,3403.6 7349.06,3403.6 7349.06,3369.73 7365.99,3369.73 7365.99,3352.8 7382.93,3352.8 7382.93,3318.93 7399.86,3318.93 7399.86,3285.06 7416.79,3285.06 7416.79,3251.2 7433.73,3251.2 7433.73,3234.26 7450.66,3234.26 7450.66,3200.4 7467.59,3200.4 7467.59,3166.53 7484.53,3166.53 7484.53,3132.66 7501.46,3132.66 7501.46,3098.8 7518.39,3098.8 7518.39,3081.86 7484.53,3081.86 7484.53,3048 7501.46,3048 7501.46,2980.26 6773.33,2980.26 6773.33,3081.86 6807.19,3081.86 6807.19,3115.73 6841.06,3115.73 6841.06,3183.46 6874.93,3183.46 6874.93,3251.2 6908.79,3251.2 6908.79,3285.06 6925.73,3285.06 6925.73,3318.93 6942.66,3318.93 6942.66,3352.8 6959.59,3352.8 6959.59,3386.66 6976.53,3386.66 6976.53,3420.53 6993.46,3420.53 6993.46,3454.4 7010.39,3454.4 7010.39,3488.26 7044.26,3488.26 7044.26,3556 7095.06,3556 7095.06,3589.86 7111.99,3589.86 7111.99,3623.73 7128.93,3623.73 "/>
   <polygon class="fil29" points="5063.06,4419.6 5046.13,4419.6 5046.13,4504.26 5063.06,4504.26 5063.06,4521.2 5080,4521.2 5080,4538.13 5096.93,4538.13 5096.93,4572 5113.86,4572 5113.86,4605.86 5147.73,4605.86 5147.73,4673.6 5164.66,4673.6 5164.66,4690.53 5181.6,4690.53 5181.6,4724.4 5198.53,4724.4 5198.53,4741.33 5215.46,4741.33 5215.46,4792.13 5249.33,4792.13 5249.33,4809.06 5266.26,4809.06 5266.26,4842.93 5283.2,4842.93 5283.2,4876.8 5300.13,4876.8 5300.13,4893.73 5317.06,4893.73 5317.06,4927.6 5334,4927.6 5334,4944.53 5350.93,4944.53 5350.93,4961.46 5367.86,4961.46 5367.86,5012.26 5384.8,5012.26 5384.8,5046.13 5401.73,5046.13 5401.73,5063.06 5418.66,5063.06 5418.66,5113.86 5452.53,5113.86 5452.53,5215.46 5469.46,5215.46 5469.46,5181.6 5503.33,5181.6 5503.33,5113.86 5520.26,5113.86 5520.26,5063.06 5537.2,5063.06 5537.2,5046.13 5554.13,5046.13 5554.13,5012.26 5588,5012.26 5588,4978.4 5604.93,4978.4 5604.93,4944.53 5621.86,4944.53 5621.86,4910.66 5638.8,4910.66 5638.8,4876.8 5672.66,4876.8 5672.66,4842.93 5689.6,4842.93 5689.6,4775.2 5723.46,4775.2 5723.46,4741.33 5740.4,4741.33 5740.4,4707.46 5757.33,4707.46 5757.33,4673.6 5774.26,4673.6 5774.26,4656.66 5791.2,4656.66 5791.2,4572 5825.06,4572 5825.06,4538.13 5858.93,4538.13 5858.93,4453.46 5875.86,4453.46 5875.86,4470.4 5892.8,4470.4 5892.8,4436.53 5875.86,4436.53 5875.86,4402.66 5858.93,4402.66 5858.93,4436.53 5825.06,4436.53 5825.06,4453.46 5808.13,4453.46 5808.13,4470.4 5096.93,4470.4 5096.93,4453.46 5080,4453.46 5080,4436.53 5063.06,4436.53 "/>
   <polygon class="fil30" points="4605.86,3674.53 4622.8,3674.53 4622.8,3657.6 4639.73,3657.6 4639.73,3640.66 4656.66,3640.66 4656.66,3623.73 4673.6,3623.73 4673.6,3606.8 4690.53,3606.8 4690.53,3556 4707.46,3556 4707.46,3522.13 4741.33,3522.13 4741.33,3488.26 4758.26,3488.26 4758.26,3454.4 4775.2,3454.4 4775.2,3420.53 4792.13,3420.53 4792.13,3386.66 4809.06,3386.66 4809.06,3352.8 4842.93,3352.8 4842.93,3318.93 4859.86,3318.93 4859.86,3285.06 4876.8,3285.06 4876.8,3251.2 4893.73,3251.2 4893.73,3217.33 4910.66,3217.33 4910.66,3183.46 4927.6,3183.46 4927.6,3149.6 4961.46,3149.6 4961.46,3115.73 4978.4,3115.73 4978.4,3048 5012.26,3048 5012.26,3014.13 5029.2,3014.13 5029.2,2980.26 4216.4,2980.26 4216.4,3014.13 4233.33,3014.13 4233.33,3048 4250.26,3048 4250.26,3081.86 4284.13,3081.86 4284.13,3115.73 4301.06,3115.73 4301.06,3183.46 4334.93,3183.46 4334.93,3251.2 4368.8,3251.2 4368.8,3285.06 4402.66,3285.06 4402.66,3318.93 4419.6,3318.93 4419.6,3352.8 4436.53,3352.8 4436.53,3403.6 4453.46,3403.6 4453.46,3420.53 4470.4,3420.53 4470.4,3454.4 4487.33,3454.4 4487.33,3522.13 4521.2,3522.13 4521.2,3556 4538.13,3556 4538.13,3589.86 4555.06,3589.86 4555.06,3623.73 4588.93,3623.73 4588.93,3657.6 4605.86,3657.6 "/>
   <polygon class="fil31" points="2980.26,5147.73 2980.26,5080 2997.2,5080 2997.2,5046.13 3031.06,5046.13 3031.06,5012.26 3048,5012.26 3048,4978.4 3081.86,4978.4 3081.86,4927.6 3098.8,4927.6 3098.8,4876.8 3115.73,4876.8 3115.73,4842.93 3149.6,4842.93 3149.6,4775.2 3183.46,4775.2 3183.46,4741.33 3200.4,4741.33 3200.4,4707.46 3217.33,4707.46 3217.33,4673.6 3234.26,4673.6 3234.26,4639.73 3251.2,4639.73 3251.2,4605.86 3268.13,4605.86 3268.13,4572 3302,4572 3302,4538.13 3318.93,4538.13 3318.93,4504.26 3285.06,4504.26 3285.06,4470.4 2692.4,4470.4 2692.4,4504.26 2675.46,4504.26 2675.46,4470.4 2641.6,4470.4 2641.6,4487.33 2658.53,4487.33 2658.53,4504.26 2590.8,4504.26 2590.8,4470.4 2540,4470.4 2540,4538.13 2556.93,4538.13 2556.93,4572 2573.86,4572 2573.86,4605.86 2590.8,4605.86 2590.8,4639.73 2607.73,4639.73 2607.73,4673.6 2624.66,4673.6 2624.66,4690.53 2641.6,4690.53 2641.6,4724.4 2658.53,4724.4 2658.53,4741.33 2675.46,4741.33 2675.46,4775.2 2692.4,4775.2 2692.4,4809.06 2709.33,4809.06 2709.33,4842.93 2726.26,4842.93 2726.26,4876.8 2743.2,4876.8 2743.2,4910.66 2760.13,4910.66 2760.13,4944.53 2777.06,4944.53 2777.06,4961.46 2794,4961.46 2794,4978.4 2810.93,4978.4 2810.93,5012.26 2827.86,5012.26 2827.86,5046.13 2844.8,5046.13 2844.8,5080 2861.73,5080 2861.73,5113.86 2878.66,5113.86 2878.66,5147.73 "/>
   <polygon class="fil32" points="6316.13,3691.46 6316.13,3657.6 6333.06,3657.6 6333.06,3623.73 6350,3623.73 6350,3606.8 6366.93,3606.8 6366.93,3589.86 6417.73,3589.86 6417.73,3488.26 6434.66,3488.26 6434.66,3454.4 6502.39,3454.4 6502.39,3352.8 6536.26,3352.8 6536.26,3285.06 6553.19,3285.06 6553.19,3268.13 6570.13,3268.13 6570.13,3251.2 6587.06,3251.2 6587.06,3183.46 6603.99,3183.46 6603.99,3149.6 6637.86,3149.6 6637.86,3115.73 6671.73,3115.73 6671.73,3048 6705.59,3048 6705.59,2980.26 5909.73,2980.26 5909.73,3031.06 5943.6,3031.06 5943.6,3064.93 5960.53,3064.93 5960.53,3115.73 5994.4,3115.73 5994.4,3149.6 6011.33,3149.6 6011.33,3183.46 6028.26,3183.46 6028.26,3217.33 6045.2,3217.33 6045.2,3285.06 6062.13,3285.06 6062.13,3302 6079.06,3302 6079.06,3318.93 6096,3318.93 6096,3335.86 6112.93,3335.86 6112.93,3352.8 6129.86,3352.8 6129.86,3386.66 6146.8,3386.66 6146.8,3420.53 6163.73,3420.53 6163.73,3454.4 6180.66,3454.4 6180.66,3488.26 6197.6,3488.26 6197.6,3522.13 6214.53,3522.13 6214.53,3556 6231.46,3556 6231.46,3606.8 6248.4,3606.8 6248.4,3623.73 6282.26,3623.73 6282.26,3691.46 "/>
   <polygon class="fil33" points="6316.13,3691.46 7128.93,3691.46 7128.93,3623.73 7111.99,3623.73 7111.99,3589.86 7095.06,3589.86 7095.06,3556 7044.26,3556 7044.26,3488.26 7010.39,3488.26 7010.39,3454.4 6993.46,3454.4 6993.46,3420.53 6976.53,3420.53 6976.53,3386.66 6959.59,3386.66 6959.59,3352.8 6942.66,3352.8 6942.66,3318.93 6925.73,3318.93 6925.73,3285.06 6908.79,3285.06 6908.79,3251.2 6874.93,3251.2 6874.93,3183.46 6841.06,3183.46 6841.06,3115.73 6807.19,3115.73 6807.19,3081.86 6773.33,3081.86 6773.33,3014.13 6756.39,3014.13 6756.39,2980.26 6705.59,2980.26 6705.59,3048 6671.73,3048 6671.73,3115.73 6637.86,3115.73 6637.86,3149.6 6603.99,3149.6 6603.99,3183.46 6587.06,3183.46 6587.06,3251.2 6570.13,3251.2 6570.13,3268.13 6553.19,3268.13 6553.19,3285.06 6536.26,3285.06 6536.26,3352.8 6502.39,3352.8 6502.39,3454.4 6434.66,3454.4 6434.66,3488.26 6417.73,3488.26 6417.73,3589.86 6366.93,3589.86 6366.93,3606.8 6350,3606.8 6350,3623.73 6333.06,3623.73 6333.06,3657.6 6316.13,3657.6 "/>
   <polygon class="fil34" points="3759.2,3793.06 3793.06,3793.06 3793.06,3691.46 3742.26,3691.46 3742.26,3657.6 3725.33,3657.6 3725.33,3623.73 3708.4,3623.73 3708.4,3606.8 3691.46,3606.8 3691.46,3556 3674.53,3556 3674.53,3522.13 3657.6,3522.13 3657.6,3488.26 3623.73,3488.26 3623.73,3437.46 3606.8,3437.46 3606.8,3386.66 3572.93,3386.66 3572.93,3352.8 3556,3352.8 3556,3335.86 3539.06,3335.86 3539.06,3302 3522.13,3302 3522.13,3251.2 3505.2,3251.2 3505.2,3217.33 3488.26,3217.33 3488.26,3183.46 3471.33,3183.46 3471.33,3166.53 3454.4,3166.53 3454.4,3149.6 3437.46,3149.6 3437.46,3115.73 3420.53,3115.73 3420.53,3048 3386.66,3048 3386.66,2980.26 3369.73,2980.26 3369.73,2946.4 3352.8,2946.4 3352.8,2980.26 3335.86,2980.26 3335.86,3014.13 3318.93,3014.13 3318.93,3031.06 3302,3031.06 3302,3048 3285.06,3048 3285.06,3081.86 3268.13,3081.86 3268.13,3115.73 3251.2,3115.73 3251.2,3149.6 3234.26,3149.6 3234.26,3183.46 3217.33,3183.46 3217.33,3217.33 3200.4,3217.33 3200.4,3251.2 3183.46,3251.2 3183.46,3268.13 3166.53,3268.13 3166.53,3285.06 3149.6,3285.06 3149.6,3318.93 3132.66,3318.93 3132.66,3352.8 3115.73,3352.8 3115.73,3386.66 3098.8,3386.66 3098.8,3420.53 3081.86,3420.53 3081.86,3454.4 3064.93,3454.4 3064.93,3471.33 3048,3471.33 3048,3522.13 3115.73,3522.13 3115.73,3572.93 3098.8,3572.93 3098.8,3606.8 3115.73,3606.8 3115.73,3640.66 3098.8,3640.66 3098.8,3657.6 3081.86,3657.6 3081.86,3674.53 3048,3674.53 3048,3708.4 3217.33,3708.4 3217.33,3691.46 3522.13,3691.46 3522.13,3708.4 3759.2,3708.4 3759.2,3725.33 3776.13,3725.33 3776.13,3742.26 3759.2,3742.26 "/>
   <polygon class="fil35" points="4216.4,4504.26 4216.4,4470.4 4165.6,4470.4 4165.6,4504.26 "/>
  </g>
 </g>
</svg>
